<?xml version="1.0" encoding="UTF-8"?>
<svg xmlns="http://www.w3.org/2000/svg" xmlns:xlink="http://www.w3.org/1999/xlink" viewBox="0 0 384 384" width="384px" height="384px">
<g id="surface51931555">
<path style=" stroke:none;fill-rule:nonzero;fill:rgb(100%,100%,100%);fill-opacity:1;" d="M 324.84375 47.75 C 320.21875 47.949219 315.976562 49.28125 312.25 50.75 C 308.804688 52.105469 296.441406 57.304688 276.75 65.5625 C 257.058594 73.820312 230.96875 84.773438 203.15625 96.46875 C 147.535156 119.863281 85.027344 146.179688 53 159.65625 C 51.898438 160.113281 47.433594 161.480469 42.5 165.25 C 37.554688 169.027344 32.0625 177.222656 32.0625 186.1875 C 32.0625 193.417969 35.671875 200.785156 40.03125 205 C 44.390625 209.214844 48.808594 211.1875 52.5 212.65625 C 63.300781 216.957031 96.679688 230.289062 111.1875 236.09375 C 116.269531 251.324219 128.207031 287.199219 131 296.03125 L 130.96875 296.03125 C 133.242188 303.21875 135.457031 307.902344 138.53125 311.8125 C 140.070312 313.765625 141.90625 315.539062 144.15625 316.9375 C 145.019531 317.472656 145.976562 317.890625 146.9375 318.28125 C 147.070312 318.339844 147.210938 318.351562 147.34375 318.40625 L 146.96875 318.3125 C 147.246094 318.425781 147.496094 318.589844 147.78125 318.6875 C 148.242188 318.847656 148.566406 318.839844 149.1875 318.96875 C 151.378906 319.644531 153.566406 320.09375 155.59375 320.09375 C 164.292969 320.09375 169.625 315.375 169.625 315.375 L 169.96875 315.125 L 207.53125 283.34375 L 253.53125 325.875 C 254.355469 327.039062 260.929688 335.96875 276.1875 335.96875 C 285.277344 335.96875 292.496094 331.5 297.09375 326.78125 C 301.691406 322.0625 304.554688 317.234375 305.84375 310.6875 L 305.84375 310.59375 C 306.738281 305.949219 350.90625 84.25 350.90625 84.25 L 350.8125 84.625 C 352.183594 78.507812 352.585938 72.589844 350.96875 66.5625 C 349.351562 60.535156 344.980469 54.648438 339.71875 51.5625 C 334.457031 48.476562 329.46875 47.550781 324.84375 47.75 Z M 318.53125 82.78125 C 316.796875 91.492188 277.492188 288.960938 274.9375 302.0625 L 229.25 259.84375 C 217.472656 248.957031 199.109375 248.574219 186.875 258.90625 L 163.5625 278.625 L 176 230 C 176 230 261.800781 143.148438 266.96875 138.09375 C 271.128906 134.046875 272 132.625 272 131.21875 C 272 129.347656 271.035156 128 268.8125 128 C 266.8125 128 264.097656 129.917969 262.65625 130.8125 C 244.28125 142.269531 165.601562 187.109375 127.5 208.78125 C 126.070312 207.925781 124.660156 207.035156 123.09375 206.40625 C 110.589844 201.402344 86.5625 191.769531 72.5 186.15625 C 105.6875 172.1875 162.578125 148.253906 215.5625 125.96875 C 243.371094 114.273438 269.453125 103.3125 289.125 95.0625 C 305.730469 88.097656 314.394531 84.492188 318.53125 82.78125 Z M 274.4375 304.375 L 274.46875 304.375 C 274.46875 304.378906 274.4375 304.496094 274.4375 304.5 C 274.464844 304.363281 274.417969 304.472656 274.4375 304.375 Z M 274.4375 304.375 "/>
</g>
</svg>
