<?xml version="1.0" encoding="UTF-8"?>
<svg xmlns="http://www.w3.org/2000/svg" xmlns:xlink="http://www.w3.org/1999/xlink" viewBox="0 0 500 500" width="500px" height="500px">
<g id="surface49095176">
<path style=" stroke:none;fill-rule:nonzero;fill:rgb(100%,100%,100%);fill-opacity:1;" d="M 410 40 L 90 40 C 62.429688 40 40 62.429688 40 90 L 40 410 C 40 437.570312 62.429688 460 90 460 L 410 460 C 437.570312 460 460 437.570312 460 410 L 460 90 C 460 62.429688 437.570312 40 410 40 Z M 370.058594 223.230469 C 367.789062 223.441406 365.488281 223.578125 363.160156 223.578125 C 336.929688 223.578125 313.878906 210.089844 300.46875 189.699219 C 300.46875 243.191406 300.46875 304.050781 300.46875 305.070312 C 300.46875 352.160156 262.289062 390.339844 215.199219 390.339844 C 168.109375 390.339844 129.929688 352.160156 129.929688 305.070312 C 129.929688 257.980469 168.109375 219.800781 215.199219 219.800781 C 216.980469 219.800781 218.71875 219.960938 220.46875 220.070312 L 220.46875 262.089844 C 218.71875 261.878906 217 261.558594 215.199219 261.558594 C 191.160156 261.558594 171.679688 281.039062 171.679688 305.078125 C 171.679688 329.121094 191.160156 348.601562 215.199219 348.601562 C 239.238281 348.601562 260.46875 329.660156 260.46875 305.621094 C 260.46875 304.671875 260.890625 109.679688 260.890625 109.679688 L 301.050781 109.679688 C 304.828125 145.589844 333.820312 173.929688 370.058594 176.53125 Z M 370.058594 223.230469 "/>
</g>
</svg>
