<?xml version="1.0" encoding="utf-8"?>
<!-- Generator: Adobe Illustrator 21.1.0, SVG Export Plug-In . SVG Version: 6.00 Build 0)  -->
<svg version="1.1" id="Layer_1" xmlns="http://www.w3.org/2000/svg" xmlns:xlink="http://www.w3.org/1999/xlink" x="0px" y="0px"
	 viewBox="0 0 64 64" style="enable-background:new 0 0 64 64;" xml:space="preserve">
<style type="text/css">
	.st0{fill:#004A71;}
</style>
<g>
	<path class="st0" d="M61.9,19.7c-0.5-1-1.3-1.8-2.4-2.2l-17.7-6.8c-0.4-0.2-0.8-0.2-1.3-0.3c-0.4,0-0.8,0-1.2,0.1l-11-0.6
		c-0.4,0-0.9,0-1.3,0.1c-0.4,0.1-0.7,0.3-1.1,0.4l-10.8,2.8c-0.4,0.1-0.8,0.3-1.2,0.5c-0.3,0.2-0.6,0.5-0.9,0.7l-9.5,5.9
		c-0.4,0.2-0.7,0.5-1,0.8c-1.2,1.4-1.4,3.4-0.4,5L18.5,52c1.2,2,3.9,2.6,5.8,1.3l6.2-3.9l1.5-0.4l1.6,0.1l12.1,4.6
		c0.4,0.2,0.8,0.2,1.3,0.3c1.9,0.1,3.5-1,4.2-2.7L62,23C62.4,21.9,62.4,20.7,61.9,19.7z M23.6,52.3c-1.4,0.9-3.2,0.4-4-0.9L3.5,25.5
		c-0.7-1.1-0.6-2.5,0.3-3.5c0.2-0.2,0.4-0.4,0.7-0.6l7.7-4.8c-0.1,0.6-0.1,1.1,0.1,1.7l7.5,29.5c0.6,2.3,2.9,3.6,5.2,3.1l1.5-0.4
		L23.6,52.3z M24.5,49.7c-1.6,0.4-3.2-0.6-3.6-2.1L13.5,18c-0.3-1.2,0.2-2.5,1.3-3.2c0.3-0.2,0.5-0.3,0.8-0.3l8.8-2.2
		c-0.2,0.5-0.4,1.1-0.4,1.6l-1.8,30.4c-0.1,2.3,1.7,4.3,4,4.5l1.6,0.1L24.5,49.7z M26.2,47.4c-1.6-0.1-2.8-1.5-2.7-3.1L25.2,14
		c0.1-1.3,1-2.4,2.2-2.7c0.3-0.1,0.6-0.1,0.9-0.1l9,0.5c-0.4,0.4-0.7,0.9-0.9,1.4L25.5,41.6c-0.8,2.2,0.3,4.6,2.4,5.5l1.5,0.6
		L26.2,47.4z M60.8,22.5L49.9,50.9c-0.5,1.2-1.6,1.9-2.9,1.9c-0.3,0-0.6-0.1-0.9-0.2l-17.7-6.8c-1.5-0.6-2.3-2.3-1.7-3.8l10.9-28.4
		c0.5-1.2,1.6-2,2.9-1.9c0.3,0,0.6,0.1,0.9,0.2l17.7,6.8c0.7,0.3,1.3,0.8,1.6,1.5C61.1,21,61.1,21.8,60.8,22.5z"/>
	<path class="st0" d="M21.3,23.3c-0.1-0.1-0.3-0.3-0.5-0.7c-0.8-1.5-3.1-6-3.1-6l-0.9,0.2l0.2,6.5c0,0.5,0,0.8-0.1,1
		c-0.1,0.2-0.2,0.3-0.4,0.4l0.1,0.2l1.5-0.4l-0.1-0.2c-0.3,0.1-0.4-0.1-0.5-0.4c0-0.2-0.1-0.5-0.1-0.9l-0.1-1.6l1.6-0.4
		c0,0,0.8,1.5,1,2c0.1,0.1,0.1,0.2,0.1,0.3c0.1,0.3,0,0.5-0.3,0.6L20,24l1.9-0.5l-0.1-0.2C21.6,23.4,21.4,23.4,21.3,23.3z M17.5,21
		l-0.1-3.3l1.5,3L17.5,21z"/>
	<path class="st0" d="M13.1,28L13.1,28c-0.1,0.1-0.2,0.1-0.3,0.1c-0.1,0-0.2,0-0.2,0c-0.1,0-0.4-0.2-0.6-0.5
		c-1.2-1.2-4.8-4.8-4.8-4.8l-0.8,0.5l2.1,6.1c0.2,0.5,0.2,0.8,0.2,1c0,0.1,0,0.1,0,0.2c0,0.1-0.1,0.2-0.2,0.3l0,0L8.6,31l0.1,0.1
		l1.4-0.8L9.9,30c0,0-0.1,0-0.1,0c0,0,0,0-0.1,0c0,0,0,0,0,0c-0.1,0-0.1,0-0.2,0c-0.1,0-0.2-0.1-0.3-0.3C9.2,29.7,9,29.4,8.9,29
		l-0.5-1.5l1.4-0.9c0,0,1.2,1.2,1.6,1.6c0.1,0.1,0.1,0.2,0.2,0.2c0.2,0.3,0.1,0.5-0.1,0.6l0.1,0.2l1.7-1L13.1,28L13.1,28z M8.2,27.1
		l-1.1-3.1l2.3,2.4L8.2,27.1z"/>
	<path class="st0" d="M37.9,21.5c-0.3-0.1-0.3-0.3-0.2-0.6c0.1-0.2,0.2-0.4,0.4-0.7l0.9-1.3l1.5,0.6c0,0-0.2,1.6-0.3,2.2
		c0,0.1,0,0.2-0.1,0.3c-0.1,0.3-0.3,0.4-0.6,0.3l-0.1,0.2l1.8,0.7l0.1-0.2c-0.2-0.1-0.3-0.2-0.4-0.3c0-0.1,0-0.4,0-0.8
		c0.2-1.7,1-6.7,1-6.7l-0.9-0.3L37.6,20c-0.3,0.4-0.5,0.6-0.6,0.8c-0.2,0.1-0.3,0.1-0.5,0.1l-0.1,0.2l1.5,0.6L37.9,21.5z M41.1,15.6
		l-0.5,3.3l-1.4-0.5L41.1,15.6z"/>
	<path class="st0" d="M48.9,42.3L48,42l-3.6,5.4c-0.3,0.4-0.5,0.6-0.6,0.7c-0.2,0.1-0.3,0.1-0.5,0.1l-0.1,0.2l1.5,0.6l0.1-0.2
		c-0.3-0.1-0.3-0.3-0.2-0.6c0.1-0.2,0.2-0.4,0.4-0.7l0.9-1.3l1.5,0.6c0,0-0.2,1.6-0.3,2.2c0,0.1,0,0.2-0.1,0.3
		c-0.1,0.3-0.3,0.4-0.6,0.3l-0.1,0.2l1.8,0.7l0.1-0.2c-0.2-0.1-0.3-0.2-0.4-0.3c-0.1-0.1,0-0.4,0-0.8C48.2,47.3,48.9,42.3,48.9,42.3
		z M47.5,46.3l-1.4-0.5l1.8-2.8L47.5,46.3z"/>
	<path class="st0" d="M46.2,31.6c1.8-0.4,3-4.3-0.2-5.5c-3.2-1.2-4.8,2.5-3.8,4c-1.2-1.4-4.3-1.5-5,1.1c-0.7,2.8,2.5,4.7,4.8,3.6
		c-0.3,0.7-1.1,1.8-2.2,2.6c0.2,0.1,3.2,1.2,3.4,1.3c-0.3-1.3-0.2-2.7,0-3.4c1.1,2.3,4.7,3.1,6,0.5C50.4,33.3,48,31.4,46.2,31.6z"/>
	<path class="st0" d="M27.8,21.3C27.8,21.3,27.8,21.3,27.8,21.3c-0.2,0-0.3-0.1-0.3-0.2c-0.1-0.1-0.1-0.2-0.1-0.3
		c0-0.2,0.1-0.5,0.2-0.8l0.4-1.5l0,0l1.7,0.1c0,0,0.2,1.4,0.3,2.1c0,0,0,0.1,0,0.1c0,0.1,0,0.2,0,0.3c0,0.2-0.1,0.4-0.3,0.4
		c0,0-0.1,0-0.1,0c0,0-0.1,0-0.1,0l0,0.2l2,0.1l0-0.2h0c-0.1,0-0.2,0-0.3-0.1c-0.1,0-0.1-0.1-0.2-0.1c-0.1-0.1-0.2-0.4-0.2-0.8
		c-0.3-1.6-1-6.1-1.1-6.6c0,0,0-0.1,0-0.1l-0.9-0.1l-1.8,6.3c-0.1,0.5-0.3,0.8-0.4,0.9c0,0.1-0.1,0.1-0.2,0.1c0,0-0.1,0-0.2,0.1
		c0,0-0.1,0-0.1,0l0,0.2v0l1.6,0.1L27.8,21.3z M29.1,14.8l0.5,3.3L28.2,18L29.1,14.8z"/>
</g>
</svg>
