<?xml version="1.0" encoding="utf-8"?>
<!-- Generator: Adobe Illustrator 21.1.0, SVG Export Plug-In . SVG Version: 6.00 Build 0)  -->
<svg version="1.1" id="Layer_1" xmlns="http://www.w3.org/2000/svg" xmlns:xlink="http://www.w3.org/1999/xlink" x="0px" y="0px"
	 viewBox="0 0 64 64" style="enable-background:new 0 0 64 64;" xml:space="preserve">
<style type="text/css">
	.st0{fill:#004A71;}
</style>
<g>
	<path class="st0" d="M51.3,19.7c-0.6,0-1.1,0.5-1.1,1.1c0,0.3,0.1,0.6,0.4,0.8l0.2,0.2L51,33.6l-2.4,0.6l-0.1-0.7
		c-0.1-0.6-0.6-1.1-1.1-1.1l-0.6,0l-0.4-4.7c-0.1-0.6-0.3-1.3-0.8-1.8l-0.4-0.4l0.4-0.4c0.4-0.5,0.7-1.1,0.7-1.8v-6.6
		c0-1.5-1.2-2.8-2.8-2.8H33.3l0.2-0.8c0-0.5-0.6-1-1.4-1h-2c-0.8,0-1.4,0.5-1.4,0.9c0,0,0,0.1,0,0.1l0.2,0.8H18.9
		c-1.5,0-2.8,1.2-2.8,2.8v6.6c0,0.7,0.2,1.3,0.7,1.8l0.4,0.4l-0.4,0.4c-0.5,0.5-0.7,1.1-0.8,1.8l-1.1,12.6c-0.1,0.6,0.1,1.3,0.5,1.8
		l0.3,0.4l-0.4,0.4c-0.5,0.5-0.9,1.1-1,1.7L14,45.7c-0.1,0.7,0,1.3,0.4,1.9l0.3,0.4l-0.3,0.4c-0.5,0.5-0.7,1.2-0.7,1.9v6.6
		c0,1.5,1.2,2.8,2.8,2.8h29.6c1.5,0,2.8-1.2,2.8-2.8v-6.6c0-0.7-0.3-1.4-0.7-1.9l-0.3-0.4l0.3-0.4c0.4-0.5,0.5-1.2,0.4-1.9l-0.2-1.1
		c-0.1-0.6-0.5-1.3-1-1.7l-0.4-0.4L47,42c0.4-0.5,0.5-1.1,0.5-1.8l-0.2-2.9l0.5-0.1c0.6-0.1,1-0.8,0.9-1.5l-0.1-0.9l2.7-0.7
		c0.1,0,0.2-0.1,0.2-0.3l0.3-12l0.2-0.2c0.3-0.2,0.4-0.5,0.4-0.8C52.4,20.1,51.9,19.7,51.3,19.7z M17.8,16.7c0-0.6,0.5-1,1-1h24.6
		c0.6,0,1,0.5,1,1v6.6c0,0.5-0.4,1-1,1c0,0-0.1,0-0.1,0H18.9c0,0-0.1,0-0.1,0c-0.5,0-1-0.5-1-1V16.7z M17.6,27.8
		c0-0.6,0.6-1.1,1.1-1.1c0,0,0,0,0.1,0h24.6c0,0,0,0,0.1,0c0.6,0.1,1.1,0.6,1.1,1.1l1.1,12.6c0,0.3-0.1,0.5-0.2,0.7
		c-0.2,0.2-0.4,0.3-0.6,0.3H17.5c-0.3,0-0.5-0.1-0.6-0.3c-0.2-0.2-0.2-0.4-0.2-0.7L17.6,27.8z M15.7,46l0.2-1.1
		c0.1-0.6,0.8-1.2,1.5-1.2h27.4c0.7,0,1.4,0.6,1.5,1.2l0.2,1.1c0,0.2,0,0.4-0.1,0.6c-0.1,0.1-0.3,0.2-0.5,0.2H16.4
		c-0.2,0-0.4-0.1-0.5-0.2C15.7,46.4,15.7,46.2,15.7,46z M47,50.2v6.6c0,0.6-0.5,1-1,1H16.4c-0.6,0-1-0.5-1-1v-6.6c0-0.6,0.5-1,1-1
		h29.6C46.5,49.1,47,49.6,47,50.2z"/>
	<path class="st0" d="M35.6,17.9c-0.7,0-1.4,0.4-1.7,1c-0.4-1.1-1.5-1.9-2.8-1.9c-1.3,0-2.3,0.8-2.8,1.9c-0.4-0.6-1-1-1.7-1
		c-1.1,0-2,0.9-2,2c0,1.1,0.9,2,2,2c0.7,0,1.4-0.4,1.7-1c0.4,1.1,1.5,1.9,2.8,1.9c1.3,0,2.3-0.8,2.8-1.9c0.4,0.6,1,1,1.7,1
		c1.1,0,2-0.9,2-2C37.7,18.8,36.7,17.9,35.6,17.9z M27.8,19.7l-0.6,0.5l0.2,0.7c0,0,0,0.1,0,0.1c0,0,0,0,0,0c0,0,0,0,0,0l-0.6-0.5
		L26,21c0,0-0.1,0-0.1,0c0,0,0-0.1,0-0.1l0.2-0.7l-0.6-0.5c0,0,0-0.1,0-0.1c0,0,0-0.1,0.1-0.1h0.8l0.2-0.7c0,0,0-0.1,0.1-0.1
		s0.1,0,0.1,0.1l0.2,0.7h0.8C27.8,19.5,27.8,19.5,27.8,19.7C27.8,19.6,27.8,19.6,27.8,19.7z M32.8,19.5l-0.9,0.7l0.3,1.1
		c0,0.1,0,0.1,0,0.1c0,0,0,0-0.1,0s-0.1,0-0.1,0l-0.9-0.7l-0.9,0.7c0,0-0.1,0-0.1,0c0,0-0.1-0.1,0-0.1l0.3-1.1l-0.9-0.7
		c0,0-0.1-0.1,0-0.1c0-0.1,0.1-0.1,0.1-0.1h1.1l0.3-1.1c0-0.1,0.1-0.1,0.1-0.1c0.1,0,0.1,0,0.1,0.1l0.3,1.1h1.1c0.1,0,0.1,0,0.1,0.1
		C32.9,19.5,32.8,19.5,32.8,19.5z M36.8,19.7l-0.6,0.5l0.2,0.7c0,0,0,0.1,0,0.1c0,0,0,0,0,0c0,0,0,0-0.1,0l-0.6-0.5L35,21
		c0,0-0.1,0-0.1,0c0,0,0-0.1,0-0.1l0.2-0.7l-0.6-0.5c0,0,0-0.1,0-0.1c0,0,0-0.1,0.1-0.1h0.8l0.2-0.7c0,0,0-0.1,0.1-0.1
		c0,0,0.1,0,0.1,0.1l0.2,0.7h0.8C36.8,19.5,36.8,19.5,36.8,19.7C36.8,19.6,36.8,19.6,36.8,19.7z"/>
	<path class="st0" d="M34.5,54.2c-0.4-0.1-0.8-0.1-1.2-0.2c0.2-0.3,0.3-0.7,0.3-1.1c0-1.3-1-2.4-2.3-2.4c-1.3,0-2.4,1-2.4,2.3
		c0,0.4,0.1,0.8,0.2,1.1c-0.4,0-0.8,0.1-1.2,0.2c-0.2,0-0.4,0.2-0.3,0.4c0.1,0.3,0.2,0.6,0.3,0.9c0.1,0.2,0.3,0.3,0.5,0.3
		c1.9-0.3,3.7-0.2,5.6,0.1c0.2,0,0.4-0.1,0.5-0.3c0.1-0.3,0.2-0.6,0.3-0.9C34.8,54.5,34.7,54.3,34.5,54.2z M31.7,54
		c-0.1,0.1-0.3,0.2-0.5,0.2l0,0.2c0,0.1-0.1,0.2-0.1,0.2h0c0,0-0.1,0-0.1,0c0,0,0-0.1,0-0.1l0-0.2c-0.1,0-0.3,0-0.4-0.1
		c-0.2-0.1-0.3-0.2-0.3-0.3c0-0.1,0-0.1,0.1-0.2c0,0,0.1-0.1,0.2-0.1c0,0,0.1,0,0.2,0.1c0.1,0.1,0.2,0.1,0.2,0.1c0.1,0,0.2,0,0.2,0
		c0.1,0,0.2,0,0.2-0.1c0.1-0.1,0.1-0.1,0.1-0.2c0-0.1-0.1-0.2-0.3-0.3c-0.2-0.1-0.4-0.1-0.5-0.2c-0.2-0.1-0.3-0.3-0.3-0.5
		c0-0.2,0.1-0.3,0.2-0.5c0.1-0.1,0.3-0.2,0.4-0.2l0-0.1c0-0.1,0.1-0.2,0.1-0.2c0,0,0.1,0,0.1,0.1l0,0.1c0.1,0,0.2,0,0.3,0.1
		c0.2,0.1,0.2,0.2,0.2,0.3c0,0.1,0,0.1-0.1,0.2c0,0-0.1,0.1-0.2,0.1c0,0-0.1,0-0.2-0.1c-0.1,0-0.2-0.1-0.2-0.1c-0.1,0-0.2,0-0.2,0.1
		c-0.1,0-0.1,0.1-0.1,0.2c0,0.1,0,0.1,0.1,0.1c0,0,0.1,0.1,0.3,0.1c0.3,0.1,0.4,0.2,0.5,0.3c0.2,0.1,0.2,0.3,0.2,0.5
		C31.9,53.7,31.9,53.8,31.7,54z"/>
	<g>
		<path class="st0" d="M23.5,34.7L23.5,34.7c-0.1,0-0.2,0-0.2,0c0,0-0.1,0-0.2-0.1c-0.1-0.1-0.2-0.1-0.2-0.1c-0.1,0-0.2,0-0.2,0.1
			c-0.1,0.1-0.1,0.1-0.1,0.3c0,0.2,0.1,0.3,0.4,0.5c0.1,0.1,0.2,0.1,0.4,0.1l0,0.1c0,0.1,0,0.2,0,0.2c0,0.1,0.1,0.1,0.2,0.1
			c0,0,0,0,0,0c0.1,0,0.3-0.1,0.3-0.3l0-0.1c0.2,0,0.4-0.1,0.6-0.3c0.2-0.2,0.3-0.4,0.3-0.7c0-0.3-0.1-0.5-0.3-0.7
			c-0.1-0.1-0.3-0.2-0.6-0.3c-0.2-0.1-0.2-0.1-0.3-0.1c0,0,0,0,0-0.1c0-0.1,0-0.1,0.1-0.1c0,0,0.1-0.1,0.2,0c0,0,0.1,0,0.2,0.1
			c0.1,0.1,0.2,0.1,0.3,0.1c0.1,0,0.2,0,0.2-0.1c0.1-0.1,0.1-0.1,0.1-0.3c0-0.1,0-0.3-0.3-0.4c-0.1,0-0.2-0.1-0.3-0.1
			c0-0.1,0-0.1,0-0.1c0-0.2-0.1-0.2-0.3-0.3c-0.1,0-0.2,0.1-0.3,0.3l0,0.1c-0.2,0-0.4,0.1-0.5,0.2c-0.2,0.2-0.3,0.4-0.3,0.6
			c0,0.3,0.1,0.6,0.4,0.7l0.6,0.3c0.2,0.1,0.2,0.2,0.2,0.3c0,0.1,0,0.1-0.1,0.2C23.7,34.7,23.6,34.7,23.5,34.7z"/>
		<path class="st0" d="M31.9,33.7c-0.1-0.1-0.3-0.2-0.6-0.3c-0.2-0.1-0.3-0.1-0.3-0.1c0,0,0,0,0-0.1c0-0.1,0-0.1,0.1-0.1
			c0,0,0.1,0,0.2,0c0,0,0.1,0,0.2,0.1c0.2,0.1,0.2,0.1,0.3,0.1c0.1,0,0.2,0,0.2-0.1C32,33,32,32.9,32,32.8c0-0.1-0.1-0.3-0.3-0.4
			c-0.1,0-0.2-0.1-0.3-0.1l0-0.1c0,0,0,0,0,0c0-0.2-0.1-0.2-0.3-0.2c-0.1,0-0.3,0.1-0.3,0.3v0.1c-0.2,0-0.4,0.1-0.5,0.3
			c-0.2,0.2-0.3,0.4-0.3,0.6c0,0.3,0.1,0.6,0.4,0.7l0.6,0.3c0.2,0.1,0.2,0.2,0.2,0.3c0,0.1,0,0.1-0.1,0.2c-0.1,0.1-0.1,0.1-0.2,0.1
			c-0.1,0-0.2,0-0.2,0c0,0-0.1,0-0.2-0.1c-0.1-0.1-0.2-0.1-0.2-0.1c-0.1,0-0.2,0-0.3,0.1c-0.1,0.1-0.1,0.2-0.1,0.3
			c0,0.2,0.1,0.3,0.4,0.4c0.1,0,0.2,0.1,0.4,0.1l0,0.1c0,0.2,0.1,0.3,0.3,0.3h0c0.1,0,0.3-0.1,0.3-0.3l0-0.1c0.2,0,0.4-0.1,0.6-0.3
			c0.2-0.2,0.3-0.4,0.3-0.7C32.2,34.1,32.1,33.9,31.9,33.7z"/>
		<path class="st0" d="M38.1,34l0.6,0.2c0.2,0.1,0.3,0.2,0.3,0.2c0,0.1,0,0.1-0.1,0.2c-0.1,0.1-0.1,0.1-0.2,0.1c-0.1,0-0.2,0-0.2,0
			c0,0-0.1,0-0.2-0.1c-0.1,0-0.2-0.1-0.2-0.1c0,0,0,0,0,0c-0.1,0-0.2,0-0.3,0.1c-0.1,0.1-0.1,0.2-0.1,0.3c0,0.2,0.1,0.3,0.4,0.4
			c0.1,0,0.2,0.1,0.4,0.1l0,0.1c0,0.2,0.1,0.3,0.3,0.3c0,0,0,0,0,0c0.1,0,0.3-0.1,0.3-0.3l0-0.1c0.2-0.1,0.4-0.2,0.5-0.3
			c0.2-0.2,0.3-0.4,0.2-0.7c0-0.3-0.1-0.5-0.3-0.7c-0.1-0.1-0.3-0.2-0.6-0.3c-0.2-0.1-0.3-0.1-0.3-0.1c0,0,0,0,0-0.1
			c0-0.1,0-0.1,0.1-0.1c0,0,0.1-0.1,0.2-0.1c0,0,0.1,0,0.2,0.1c0.1,0.1,0.2,0.1,0.3,0.1l0,0c0.1,0,0.2,0,0.3-0.1
			c0.1-0.1,0.1-0.2,0.1-0.3c0-0.1-0.1-0.3-0.3-0.4c-0.1,0-0.2-0.1-0.3-0.1l0-0.1c0-0.1-0.1-0.2-0.3-0.2c-0.1,0-0.3,0.1-0.3,0.3
			l0,0.1c-0.2,0-0.3,0.1-0.5,0.3c-0.2,0.2-0.3,0.4-0.2,0.6C37.7,33.6,37.8,33.8,38.1,34z"/>
	</g>
	<path class="st0" d="M42.7,30.6l0.6,6.7c0,0.5-0.1,0.9-0.4,1.3c-0.3,0.3-0.8,0.5-1.2,0.5H20.7c-0.5,0-0.9-0.2-1.2-0.5
		c-0.3-0.3-0.5-0.8-0.4-1.3l0.6-6.7c0.1-0.9,0.9-1.7,1.9-1.7h19.4C41.8,28.8,42.6,29.6,42.7,30.6z M21,30.7L21,30.7l-0.6,6.7
		c0,0.1,0,0.1,0,0.1c0,0,0.1,0.1,0.1,0.1h5.5l0.3-7.3h-5C21.2,30.3,21.1,30.5,21,30.7z M28.2,30.3L28,37.6h6.3L34,30.3H28.2z
		 M41.2,30.7c0-0.2-0.2-0.4-0.4-0.4h-5l0.3,7.3h5.5c0.1,0,0.1,0,0.1-0.1c0,0,0.1-0.1,0-0.1L41.2,30.7z"/>
</g>
</svg>
