<?xml version="1.0" encoding="utf-8"?>
<!-- Generator: Adobe Illustrator 21.1.0, SVG Export Plug-In . SVG Version: 6.00 Build 0)  -->
<svg version="1.1" id="Layer_1" xmlns="http://www.w3.org/2000/svg" xmlns:xlink="http://www.w3.org/1999/xlink" x="0px" y="0px"
	 viewBox="0 0 64 64" style="enable-background:new 0 0 64 64;" xml:space="preserve">
<style type="text/css">
	.st0{fill:#FFFFFF;}
</style>
<g>
	<path class="st0" d="M18.9,44.4c0-0.1,0.1-0.3,0.1-0.5l0.3-1.4c-1.9,0.2-4.1,0.9-6.9,2c1.1-2.5,1.9-5.1,1.8-7.6c-0.1,0-0.2,0-0.3,0
		c-0.6,0-1.2-0.2-1.7-0.4c0.2,4.3-2.3,8.9-4.3,12.2c3.9-2,6.9-3.2,9.3-3.8c0.4-0.3,0.8-0.5,1.3-0.5C18.8,44.4,18.9,44.4,18.9,44.4z"
		/>
	<path class="st0" d="M0,26.6c5.6,1,8.9,2.9,10.7,5.2c0.1-0.1,0.1-0.2,0.2-0.3c0.3-0.4,0.7-0.8,1.2-1c-1.3-1.7-3.2-3-5.7-4.1
		c2.1-1.1,3.9-2.5,4.7-4.7c0.2-0.6,0.4-1.3,0.5-2c-0.4-0.3-0.7-0.8-0.8-1.5c-0.1-0.4,0-0.8,0.1-1.2c0.1-0.2,0.2-0.5,0.4-0.6
		c-0.3-1.5-1-3.1-1.9-4.9c2.7,1.4,4.9,2.4,7.2,2.4c2.5,0,4.7-1.2,6.9-3.9c3.1,3,7.2,4.9,11.2,4.9c1.1,0,2.4-0.2,3.8-0.6
		c0.2-0.4,0.6-0.7,1.1-0.8c0.3-0.1,0.7-0.1,1.1-0.2c1.1-0.6,2.1-1.4,3.2-2.4c0.2,0.5,0.5,1.1,0.8,1.6c0.1-0.1,0.3-0.1,0.4-0.2
		c0.4-0.1,0.8-0.1,1.2-0.2c0.1,0,0.3,0,0.4,0c-1.7-2.3-2-5.5-2-5.5c-2.7,4.6-6.4,6.4-10,6.4c-4.5,0-8.8-2.7-11.3-6.1
		c-2.5,3.7-4.6,5-6.8,5c-3.2,0-6.8-2.7-12.4-5.5C13.2,19.9,10.5,24,0,26.6z"/>
	<path class="st0" d="M49.3,16L49.3,16c0.6,0.2,1.3,0.3,2,0.3c0.6,0,1.2-0.1,1.8-0.2c-0.6,1.4-0.9,2.8-0.4,4.3
		c0.7,2.1,2.6,3.8,6.1,5.5c-2.4,1.1-4.4,2.7-4.8,5.2c0,0.1,0,0.2,0,0.3h0.3c0.4,0,0.8,0.1,1.1,0.3c0.2,0.1,0.3,0.2,0.5,0.3
		c0-3.3,4.4-4.6,8.2-6.1c-14-4.6-9.8-8.6-5.8-14.1c-2.9,1.9-5.2,2.6-6.9,2.6c-0.3,0-0.5,0-0.7-0.1c-0.1,0.6-0.5,1-0.9,1.2
		c0,0-0.1,0-0.1,0.1c-0.1,0-0.1,0-0.1,0.1C49.3,15.7,49.3,15.8,49.3,16z"/>
	<path class="st0" d="M50.6,50.4c0,0-0.1,0-0.2,0c-0.5,0-0.9-0.1-1.3-0.2c0,0.3,0,0.6,0,1c-0.5-0.4-1-0.8-1.5-1.2
		c-0.2,0-0.5,0-0.7,0c-0.1,0-0.3,0-0.4,0c-0.2,0-0.4,0-0.6,0c-0.4,0-0.7,0-1,0c-0.7-0.1-1.3-0.5-1.6-1.2c-0.1-0.3-0.2-0.7-0.1-1
		v-0.1c-0.2-0.1-0.5-0.1-0.7-0.2l0,0c-0.5,0.6-1.2,1.1-1.9,1.5c5.2,0.8,9.6,5.7,11.6,8.6c-0.9-2.6-1.2-5-1.1-7.1
		C50.8,50.4,50.7,50.4,50.6,50.4z"/>
	<path class="st0" d="M56.4,34.3c-0.1,0.3-0.1,0.6-0.1,1c0,0.5-0.1,1.1-0.1,1.9c0,0.1,0,0.2,0,0.3c0.4,0.5,0.9,1.1,1.4,1.7
		c-2.5,0.4-4.7,1.8-6.3,3.9c-0.2,0.3-0.4,0.5-0.5,0.8l-0.1,1.7c0,0.3,0,0.5,0,0.6c0.1,0,0.2,0,0.4,0.1h0.1c0.2,0.1,0.4,0.2,0.6,0.3
		c1.3-3.6,4.1-5.7,7.8-5.7c1.1,0,2.3,0.2,3.5,0.6C59.4,38.5,57.3,36.2,56.4,34.3z"/>
	<path class="st0" d="M28.8,52.3c-0.6-3.7-1.5-7.2-4.2-8.8l-0.3,1.4c-0.1,0.3-0.1,0.5-0.1,0.6c0.1,0,0.2,0.1,0.3,0.1
		c0.9,0.2,1.7,1.1,1.4,2.5c0,0.1-0.1,0.2-0.1,0.3c0.8,2.3,1.1,5.5,1.6,9c2.6-4.2,5.2-6.6,7.8-7.7c-0.8-0.2-1.5-0.5-2.2-1
		C31.7,49.4,30.2,50.7,28.8,52.3z"/>
	<path class="st0" d="M39.7,25.1c0-0.2,0-0.3-0.2-0.5c-0.1-0.1-0.3-0.2-0.4-0.2H39c-0.3,0-0.4,0.2-0.5,0.5c-0.1,0.8-0.3,1.4-0.6,1.9
		s-0.5,0.8-0.9,1c-0.2,0.1-0.4,0.2-0.6,0.2c-0.2,0-0.5,0.1-0.9,0.1c-0.6,0-1.1-0.2-1.5-0.6s-0.8-1-1-1.8s-0.3-1.7-0.3-2.8
		c0-1.6,0.3-2.9,0.8-3.7c0.4-0.7,0.9-1,1.6-1.1c0.1,0,0.3,0,0.5,0c1.5,0,2.4,0.9,2.8,2.8c0,0.2,0.2,0.5,0.6,0.5h0.1
		c0.1,0,0.2,0,0.2-0.1c0.1-0.1,0.3-0.2,0.3-0.5c0-0.4-0.1-0.7-0.1-1.1c0-0.3,0-0.6,0-0.9c0-0.4,0-0.8,0.1-1.1v-0.1
		c0-0.1,0-0.2-0.1-0.4C39.4,17.1,39.3,17,39,17c-0.1,0-0.1,0-0.1,0c-0.2,0-0.4,0.2-0.5,0.4l-0.3-0.2c-0.8-0.5-1.6-0.8-2.4-0.8
		c-0.4,0-0.7,0-1.1,0.1c-0.7,0.1-1.3,0.4-1.8,0.7c-0.8,0.5-1.5,1.3-2,2.4c-0.5,1-0.7,2.2-0.7,3.6c0,2,0.4,3.7,1.3,4.8
		c0.9,1.1,2.2,1.7,4,1.8c0.4,0,0.8,0,1.1-0.1c0.1,0,0.3-0.1,0.4-0.1c0.4-0.1,0.8-0.3,1.3-0.6c0.1,0,0.1-0.1,0.1-0.1s0,0,0.1,0
		c0.1,0.1,0.1,0.2,0.1,0.3c0,0.3,0.3,0.5,0.6,0.5h0.1c0.1,0,0.2-0.1,0.3-0.1c0.2-0.1,0.2-0.3,0.2-0.5c-0.1-1.4-0.1-2.2-0.1-2.5
		C39.6,25.9,39.7,25.5,39.7,25.1L39.7,25.1z"/>
	<path class="st0" d="M45.4,13.6c-0.1,0-0.5,0.1-0.4,0.9c0.1,0.4,0.3,0.7,0.7,0.7c0.1,0,0.1,0,0.2,0c0.3,0,0.4,0,0.4,0s0,0,0,0.1
		s0,0.6-0.4,2.2c-0.3,1.1-0.7,2.2-1.2,3.5L44,17.7c-0.2-1.1-0.2-1.5-0.2-1.6c0-0.2,0.1-0.3,0.1-0.4c0.1-0.1,0.3-0.2,0.6-0.3
		c0.1,0,0.3-0.1,0.4-0.5c0-0.1,0-0.3,0-0.4c0-0.2-0.1-0.3-0.2-0.4c-0.1-0.2-0.3-0.3-0.4-0.3h-0.1c-0.3,0.1-0.7,0.2-1.1,0.3
		c-0.7,0.2-1.3,0.4-2.1,0.4c-0.4,0-0.8,0.1-1.1,0.2c-0.2,0-0.3,0.2-0.4,0.4c0,0.1,0,0.3,0,0.5s0.1,0.3,0.2,0.4
		c0.1,0.2,0.3,0.3,0.4,0.3l0,0h0.1c0.1,0,0.2,0,0.2,0c0.2,0,0.3,0,0.5,0.1c0.1,0.1,0.3,0.2,0.4,0.4c0.1,0.2,0.2,0.6,0.4,1.4l1.7,8.3
		c0.2,0.7,0.2,1.1,0.2,1.2c0,0.2,0,0.3-0.1,0.4c0,0.1-0.2,0.2-0.8,0.4c-0.3,0.1-0.4,0.5-0.3,0.9c0.1,0.6,0.5,0.7,0.6,0.7h0.1
		c0.3-0.1,0.7-0.2,1.1-0.3c0.4-0.1,0.7-0.2,1.1-0.3l0.5-0.1c0.7,0,1.2-0.1,1.5-0.2c0.2,0,0.3-0.2,0.4-0.3c0.1-0.1,0.1-0.3,0-0.5
		c0-0.1-0.1-0.3-0.2-0.4c-0.2-0.3-0.3-0.3-0.5-0.3c-0.1,0-0.2,0-0.3,0c-0.4,0-0.5-0.1-0.5-0.1c-0.1,0-0.1-0.1-0.2-0.3
		c0-0.1-0.2-0.4-0.3-1.3l-0.6-2.7c-0.1-0.4,0-0.4,0.1-0.4h0.1c0.1,0,0.1,0,0.1,0c0.1,0.1,0.2,0.1,0.3,0.2c0.5,0.5,1,0.9,1.3,1.3
		s0.8,1.1,1.4,2.1c0.1,0.2,0.2,0.3,0.2,0.4s0,0.2,0,0.2s-0.1,0.1-0.3,0.2c-0.2,0-0.3,0.2-0.4,0.4c0,0.1,0,0.3,0,0.4
		c0,0.2,0.1,0.3,0.2,0.4c0.1,0.2,0.3,0.3,0.5,0.3h0.1c0.3-0.1,0.8-0.2,1.5-0.4l0.5-0.1l0.5-0.1c0.7-0.1,1.3-0.1,1.6-0.2
		c0.2,0,0.3-0.2,0.4-0.4c0-0.1,0-0.3,0-0.5c-0.1-0.6-0.5-0.7-0.6-0.7s-0.1,0-0.2,0c-0.3,0-0.5-0.1-0.7-0.2c-0.3-0.2-0.5-0.5-0.8-0.9
		c-1.5-2.2-2.9-3.8-4.1-4.9l-0.1-0.1c0.5-1.3,1-2.8,1.5-4.6c0.1-0.6,0.3-0.8,0.3-0.9c0.1-0.1,0.3-0.3,0.7-0.4
		c0.2-0.1,0.4-0.3,0.3-0.9c-0.1-0.6-0.5-0.7-0.6-0.7l0,0h-0.1c-0.3,0.1-0.6,0.2-0.8,0.3c-0.4,0.2-0.9,0.3-1.4,0.3
		C46.1,13.4,45.8,13.5,45.4,13.6z"/>
	<path class="st0" d="M50.3,35.1c0-0.5,0.2-0.6,0.2-0.6c0.1,0,0.3-0.1,0.6-0.1c0.1,0,0.2,0,0.4,0c0.6,0,1,0.2,1.2,0.3
		c0.2,0.2,0.4,0.4,0.5,0.7c0.1,0.4,0.2,1,0.2,1.7c0,0.3,0.2,0.7,0.6,0.7l0,0h0.1c0.1,0,0.3,0,0.4-0.1c0.2-0.1,0.3-0.3,0.3-0.6
		c0-0.8,0-1.4,0.1-2c0-0.6,0.1-1.1,0.2-1.5c0-0.4-0.1-0.7-0.5-0.9c-0.2-0.1-0.4-0.1-0.7-0.2l-10-0.8c-0.1,0-0.2,0-0.2,0
		c-0.9,0-1.1,0.5-1.1,0.8c0,0.5,0,1.1,0,1.6c-0.1,0.6-0.1,1.2-0.2,1.9c0,0.2,0.1,0.4,0.2,0.6c0.1,0.1,0.3,0.2,0.4,0.2h0.1
		c0.4,0,0.6-0.3,0.7-0.6c0.2-0.9,0.4-1.5,0.6-1.8c0.2-0.3,0.4-0.5,0.6-0.6c0.2-0.1,0.5-0.1,0.8-0.1c0.1,0,0.3,0,0.5,0
		c0.6,0.1,0.9,0.2,0.9,0.2s0.1,0.1,0.1,0.7l-0.9,10.3c-0.1,0.7-0.1,1.1-0.2,1.3c-0.1,0.2-0.2,0.3-0.3,0.4C46,46.9,45.7,47,45,47
		c-0.2,0-0.6,0.1-0.7,0.8c0,0.2,0,0.3,0.1,0.5s0.3,0.4,0.5,0.4c0.3,0,0.6,0,0.9,0c0.2,0,0.4,0,0.5,0c0.2,0,0.3,0,0.5,0
		c0.8,0,1.5,0.1,2.2,0.2c0.5,0.1,1,0.2,1.5,0.2l0,0l0,0c0.2,0,0.4-0.1,0.5-0.3c0.1-0.1,0.2-0.3,0.2-0.5s0-0.3-0.1-0.5
		s-0.2-0.4-0.4-0.4c-0.7-0.1-1-0.3-1.1-0.3c-0.1-0.1-0.2-0.2-0.2-0.3s-0.1-0.5,0-1.4L50.3,35.1z"/>
	<path class="st0" d="M24.3,46.8c-0.6-0.2-1-0.4-1.2-0.7c-0.1-0.2-0.2-0.6,0-1.6l0.6-3.2c0.5,0.1,1,0.1,1.4,0.1c1.1,0,2-0.2,2.8-0.6
		c1.1-0.6,1.8-1.7,2.1-3.2c0.3-1.3,0.1-2.4-0.5-3.3c-0.6-0.9-1.5-1.5-2.8-1.7c-0.4-0.1-0.9-0.2-1.4-0.2c-0.4-0.1-1-0.1-1.7-0.3
		c-0.4-0.1-0.8-0.2-1-0.3c-0.3-0.1-0.7-0.2-1.1-0.3h-0.1c-0.2,0-0.4,0.1-0.5,0.2s-0.2,0.3-0.2,0.4c0,0.2,0,0.3,0,0.5
		c0.1,0.2,0.2,0.4,0.4,0.4c0.2,0.1,0.4,0.2,0.7,0.3c0.1,0.1,0.2,0.1,0.2,0.3c0.1,0.2,0.1,0.4,0.1,0.7s-0.1,0.8-0.2,1.6L20.3,44
		c-0.1,0.7-0.3,1-0.3,1.1c-0.1,0.2-0.2,0.3-0.3,0.3c-0.1,0-0.3,0.1-0.6,0.1c-0.1,0-0.2,0-0.3,0c-0.4,0-0.6,0.3-0.7,0.7
		c0,0.2,0,0.3,0,0.5c0.1,0.3,0.2,0.4,0.5,0.5c0.4,0.1,0.9,0.1,1.3,0.2c0.9,0.1,1.7,0.2,2.5,0.5c0.5,0.1,1,0.3,1.6,0.4h0.1
		c0.4,0,0.6-0.3,0.7-0.7C24.9,47.1,24.6,46.8,24.3,46.8z M25,34.8c0.1-0.4,0.2-0.5,0.2-0.5l0,0c0,0,0.1,0,0.2,0s0.3,0,0.4,0.1
		c0.7,0.1,1.1,0.4,1.3,0.8c0.1,0.3,0.3,0.9,0,2.2c-0.2,0.8-0.4,1.4-0.6,1.7s-0.5,0.5-0.9,0.6c-0.2,0-0.4,0.1-0.6,0.1
		c-0.3,0-0.6,0-1-0.1L25,34.8z"/>
	<path class="st0" d="M41.4,46.6c0.7-0.9,1.2-2,1.4-3.3s0.1-2.7-0.3-4.2c-0.4-1.4-0.9-2.6-1.7-3.6s-1.7-1.7-2.7-2.1
		c-0.6-0.2-1.2-0.3-1.9-0.3c-0.5,0-0.9,0.1-1.4,0.2c-1.1,0.3-2.1,0.9-2.8,1.7c-0.7,0.9-1.2,1.9-1.4,3.2c-0.2,1.3-0.1,2.6,0.2,4
		c0.6,2.5,1.6,4.3,3,5.3c0.9,0.7,2,1.1,3.2,1.1c0.5,0,1.1-0.1,1.6-0.2C39.8,48.1,40.7,47.5,41.4,46.6z M39.6,45.6
		c-0.3,0.6-0.7,0.9-1.3,1.1c-0.2,0.1-0.5,0.1-0.7,0.1c-0.7,0-1.3-0.3-1.9-0.9c-0.8-0.8-1.5-2.3-2-4.2c-0.3-1.1-0.4-2.2-0.4-3.2
		c0-0.9,0.2-1.7,0.5-2.3s0.8-0.9,1.4-1.1c0.2-0.1,0.4-0.1,0.6-0.1c0.4,0,0.8,0.1,1.1,0.3c0.6,0.3,1.1,0.9,1.5,1.7
		c0.5,0.8,0.9,1.9,1.2,3.1c0.3,1.1,0.4,2.1,0.4,3.1C40.1,44.1,39.9,44.9,39.6,45.6z"/>
	<path class="st0" d="M17.9,18.2c0.1-0.1,0.4-0.2,0.9-0.3c0.2,0,0.4-0.2,0.5-0.5c0.1-0.2,0.1-0.3,0-0.5c-0.1-0.5-0.4-0.7-0.7-0.7
		c-0.1,0-0.1,0-0.2,0c-0.2,0-0.9,0.2-2.2,0.4l-0.8,0.1c-0.4,0.1-0.9,0.1-1.5,0.1c-0.5,0-1,0.1-1.5,0.1c-0.3,0-0.5,0.2-0.6,0.4
		c-0.1,0.2-0.1,0.3-0.1,0.5c0.1,0.6,0.5,0.7,0.7,0.7c0.1,0,0.1,0,0.1,0c0.2,0,0.4,0,0.5,0c0.2,0,0.3,0,0.4,0.1
		c0.2,0.1,0.3,0.2,0.4,0.4c0.1,0.2,0.2,0.5,0.3,1.2l1.5,10.6c0.1,0.9,0.1,1.7-0.1,2.1c-0.2,0.4-0.5,0.6-1,0.6c-0.1,0-0.2,0-0.3,0
		s-0.1,0-0.1,0s0,0,0-0.1c0.1-0.2,0.2-0.5,0.1-0.7c-0.1-0.4-0.3-0.7-0.6-0.9c-0.2-0.1-0.5-0.2-0.7-0.2c-0.1,0-0.2,0-0.4,0
		c-0.4,0.1-0.8,0.3-1,0.6c-0.2,0.3-0.3,0.7-0.3,1.1c0.1,0.7,0.5,1.3,1.1,1.6c0.3,0.2,0.7,0.3,1.2,0.3c0.3,0,0.7,0,1.1,0
		c0.9-0.1,1.6-0.5,2.3-1c0.7-0.6,1.1-1.3,1.4-2.1s0.4-1.7,0.2-2.7l-1.4-9.6C17,19,17,18.6,17,18.5C17.7,18.4,17.8,18.3,17.9,18.2z"
		/>
	<path class="st0" d="M25.8,28.1c-0.3,0.1-0.5,0.3-0.5,0.7c0,0.2,0,0.3,0.1,0.4c0.1,0.2,0.3,0.3,0.5,0.3c0.3,0,0.7,0,1-0.1
		c0.3,0,0.7-0.1,1-0.1s0.6,0,0.9,0.1s0.6,0.1,0.9,0.1c0.1,0,0.5,0,0.5-0.7c0-0.6-0.3-0.7-0.4-0.7S29.6,28,29.5,28
		c-0.1,0-0.1-0.1-0.2-0.1s-0.1-0.1-0.2-0.3c-0.1-0.2-0.2-0.4-0.3-0.7c-0.8-2.5-1.8-6-3.2-10.4v-0.1C25.4,16.1,25.2,16,25,16
		c-0.3,0-0.5,0.2-0.6,0.4l-3.1,10.3c-0.2,0.6-0.3,0.9-0.4,1c-0.1,0.2-0.3,0.3-0.5,0.3h-0.2c-0.3,0.1-0.5,0.3-0.5,0.7
		c0,0.1,0,0.3,0.1,0.4c0.1,0.2,0.3,0.3,0.5,0.3c0.3,0,0.5,0,0.8-0.1c0.2,0,0.4-0.1,0.6-0.1c0.1,0,0.3,0,0.8,0.1
		c0.4,0,0.6,0.1,0.8,0.1c0.3,0,0.6-0.2,0.6-0.7c0-0.6-0.3-0.7-0.5-0.7c-0.7-0.1-0.7-0.3-0.7-0.4c0,0,0-0.1,0.1-0.3l0.6-2.1v-0.1l0,0
		h2.4c0.1,0,0.2,0,0.2,0s0,0,0,0.1c0.2,0.7,0.4,1.2,0.5,1.6c0.1,0.5,0.1,0.7,0.1,0.8c0,0.2,0,0.2,0,0.2C26.4,27.9,26.2,28,25.8,28.1
		z M23.5,23.6l1-3.2l0.9,3.2H23.5z"/>
</g>
</svg>
