<?xml version="1.0" encoding="utf-8"?>
<!-- Generator: Adobe Illustrator 21.1.0, SVG Export Plug-In . SVG Version: 6.00 Build 0)  -->
<svg version="1.1" id="Layer_1" xmlns="http://www.w3.org/2000/svg" xmlns:xlink="http://www.w3.org/1999/xlink" x="0px" y="0px"
	 viewBox="0 0 64 64" style="enable-background:new 0 0 64 64;" xml:space="preserve">
<style type="text/css">
	.st0{fill:#FFFFFF;}
</style>
<g>
	<path class="st0" d="M19.6,32.1c-0.1-0.2-0.3-0.4-0.5-0.4l0,0c0,0,0,0-0.1,0l0,0c0.1-0.2,0.2-0.4,0.2-0.6c0-0.1,0-0.2,0.1-0.3
		c0-0.3,0-0.6-0.1-0.8c-0.1-0.3-0.3-0.5-0.5-0.6h-0.1l0,0h-0.1h-0.1h-0.1h-0.1h-0.1c0,0-0.1,0-0.1,0.1c0,0-0.1,0-0.1,0.1l-0.1,0.1
		c0,0,0,0.1-0.1,0.1l-0.1,0.1c0,0,0,0.1-0.1,0.1c0,0.1-0.1,0.1-0.1,0.2v0.1c0,0.1-0.1,0.2-0.1,0.3c0,0.1-0.1,0.2-0.1,0.3
		c0,0.1,0,0.2,0,0.3h-0.1H17l0,0c-0.1,0-0.1,0-0.2,0l0,0c-0.1,0-0.1,0-0.2,0.1l0,0c-0.1,0-0.1,0.1-0.2,0.1l0,0
		c-0.1,0.1-0.1,0.1-0.2,0.2l0,0c-0.1,0.1-0.1,0.1-0.2,0.2l0,0c-0.1,0.1-0.1,0.2-0.2,0.3l0,0c-0.1,0.1-0.1,0.2-0.2,0.3l0,0
		c-0.1,0.1-0.1,0.2-0.2,0.4c-0.5,1.3-0.3,2.5,0.5,2.6l0,0H16h0.1h0.1h0.1c0.1,0,0.1-0.1,0.2-0.1c0,0,0,0,0.1,0s0.2-0.1,0.2-0.2
		c-0.4,0.7-0.8,1.2-1.4,1.3l-0.3,0.7l1.6,0.1l1.5,0.1l0.1-0.7c-0.2-0.1-0.3-0.2-0.4-0.3c-0.1-0.3-0.2-0.6-0.2-1
		c0,0.1,0.1,0.1,0.1,0.2c0.1,0.1,0.2,0.2,0.3,0.3c0.1,0,0.1,0,0.2,0.1l0,0l0,0c0,0,0,0,0.1,0c0,0,0,0,0.1,0c0,0,0,0,0.1,0
		c0,0,0,0,0.1,0c0,0,0,0,0.1,0c0,0,0,0,0.1,0c0,0,0,0,0.1,0c0,0,0,0,0.1,0c0,0,0,0,0.1,0c0,0,0,0,0.1-0.1c0,0,0,0,0.1,0
		c0,0,0,0,0.1-0.1c0,0,0,0,0.1-0.1c0,0,0,0,0.1-0.1c0,0,0,0,0.1-0.1c0,0,0-0.1,0.1-0.1c0,0,0,0,0-0.1c0,0,0-0.1,0.1-0.1
		c0,0,0,0,0-0.1v-0.1v-0.1v-0.1v-0.1v-0.1v-0.1v-0.1v-0.1v-0.1V34c0-0.1,0-0.1,0-0.2l0,0c0-0.1,0-0.1,0-0.2c0-0.4,0-0.7,0-1
		C19.7,32.4,19.6,32.2,19.6,32.1z"/>
	<path class="st0" d="M60.6,23.8c-0.4-0.6-1.1-1-1.9-1.1c-2.8-0.2-5.8-0.3-8.9-0.5v-4.4c0-0.1,0-0.2-0.1-0.3l-0.3-0.7
		c0,0,0-0.1-0.1-0.1c-0.5-0.6-1.1-1-1.8-1C38.2,15.4,27.5,15,17,14c-0.2,0-0.3,0-0.5,0c-1.3,0.1-2.3,1.4-2.5,3.2l-0.3,2.2
		C11.8,31.2,7.3,47.9,4,48.3c-0.1,0-0.2,0-0.2,0C3.4,48.2,3,48.4,3,48.8c-0.1,0.4,0.2,0.7,0.5,0.8c1.6,0.3,6.2,0.5,9.7,0.5
		c0.5,0,1,0,1.4,0c0,0,0,0,0.1,0c0.5,0,0.9,0,1.3-0.1h0.1l27.5-1.6L50,48c0.1,0,0.3-0.1,0.4-0.1c5.4-4,9.3-12.3,10.6-22.1
		C61.1,25,60.9,24.4,60.6,23.8z M14.4,48.7c-2.4,0-6-0.1-8.4-0.2c5.1-5.4,8.9-28.6,9-28.9l0.3-2.2c0.1-1.1,0.7-2,1.4-2.1
		c0.1,0,0.1,0,0.2,0c10.6,1.1,21.3,1.4,30.6,1.7c0.3,0,0.5,0.2,0.8,0.4l0.2,0.5v4.2c-6.5-0.4-13.3-1-20.1-1.8
		c-1.5-0.2-2.9,1-3.2,2.8L24.7,25c0,0.2-0.1,0.4-0.1,0.5c-0.1,0-0.1-0.1-0.2-0.2s-0.1-0.3-0.1-0.7l-0.6-6.1c0-0.4-0.3-0.6-0.8-0.7
		h-0.1c-0.5,0-0.8,0.2-1,0.6l-3.9,6c-0.2,0.3-0.3,0.5-0.4,0.5c-0.1,0.1-0.2,0.2-0.3,0.2l0,0h-0.1H17l0,0l0,0c0,0,0,0-0.1,0
		c0,0,0,0-0.1,0c-0.4,0-0.7,0.2-0.8,0.6c-0.1,0.4,0.1,0.6,0.5,0.6h0.1h0.1c0.1,0,0.2,0,0.3,0h0.5c0,0,0.1,0,0.2,0c0,0,0,0,0.1,0
		s0.2,0,0.3,0c0.1,0,0.2,0,0.3,0c0.1,0,0.2,0,0.2,0l0.6,0.1h0.1h0.1h0.1h0.1c0.5,0,0.7-0.2,0.8-0.5c0.1-0.4-0.1-0.6-0.6-0.6h-0.1
		c0,0,0,0-0.1,0s-0.1,0-0.2,0s-0.1,0-0.2,0c0,0,0,0-0.1,0H19l0,0c-0.2,0-0.2-0.1-0.2-0.2s0-0.1,0.1-0.2l0.6-0.9
		c0.1-0.2,0.2-0.3,0.3-0.4c0,0,0.1-0.1,0.2-0.1l0,0l2.2,0.1l0,0c0.1,0,0.2,0,0.2,0s0,0.1,0.1,0.2l0.1,1.2l0,0v0.1v0.1c0,0,0,0,0,0.1
		s-0.1,0.2-0.2,0.2l0,0h-0.1c-0.1,0-0.1,0-0.2,0s-0.1,0-0.2,0s-0.1,0-0.2,0h-0.1c-0.4,0-0.7,0.2-0.8,0.5c-0.1,0.4,0.1,0.6,0.5,0.6
		h0.1l0,0h0.1l0,0l0,0l0,0l0,0c0.4,0,0.6,0,0.9,0c0.1,0,0.1,0,0.2,0s0.3,0,0.4,0s0.3,0,0.5,0c0.1,0,0.3,0,0.4,0.1
		C22.5,34.2,19.6,45.2,14.4,48.7z M25.1,25.6L25.1,25.6C25.1,25.6,25,25.6,25.1,25.6L25.1,25.6z M24.9,25.6L24.9,25.6
		c-0.1,0-0.1,0-0.1,0s0,0-0.1,0c0,0,0,0-0.1,0c0.1,0,0.1,0,0.1,0C24.8,25.6,24.9,25.6,24.9,25.6z M22.5,22.5L22.5,22.5l-1.8-0.1
		c0.3-0.4,0.5-0.9,0.8-1.3s0.6-0.9,0.8-1.3L22.5,22.5L22.5,22.5L22.5,22.5L22.5,22.5z M20.6,22.5L20.6,22.5L20.6,22.5L20.6,22.5z
		 M49.8,46.7L43.5,47l-26.9,1.6c5.1-4.9,7.6-15.8,9.3-23.2l0.5-2c0.2-1,0.9-1.7,1.6-1.7h0.1c10.5,1.2,21.2,1.9,30.4,2.4
		c0.3,0,0.7,0.2,0.9,0.5s0.3,0.6,0.2,1C58.5,34.9,54.8,42.8,49.8,46.7z"/>
	<path class="st0" d="M30,46.2l1.7-0.1l1.2-0.1l12.8-0.8c-0.4-3.8-1.4-7.3-2.5-10.9C38.9,38.8,34.8,43,30,46.2z"/>
	<path class="st0" d="M29.8,34.3c-1.2,1.5-2.6,2.8-4,4.2c0.6,1.3,0.9,2.8,1.1,4.2c1.3-1.5,2.7-2.9,4.1-4.2
		C30.6,37.2,30.2,35.8,29.8,34.3z"/>
	<path class="st0" d="M27,32.7h0.1c0,0,0,0,0.1,0l0,0h0.7c0.1,0,0.1,0,0.2,0s0.3,0,0.5,0c0.3,0,0.6,0.1,0.8,0.1l0.7,0.2
		c0,0,0,0,0.1,0l0,0l0,0l0,0h0.1c0.1,0,0.1,0,0.2,0c0.4,0,0.7-0.2,0.8-0.5c0.1-0.2,0-0.3,0-0.4c-0.1-0.1-0.2-0.2-0.4-0.2
		c-0.1,0-0.1,0-0.2,0l0,0c-0.1,0-0.1,0-0.2,0s-0.1,0-0.1,0l0,0l0,0c-0.2,0-0.3-0.2-0.3-0.5c0-0.1,0-0.2,0.1-0.4
		c0.1-0.2,0.1-0.5,0.3-0.8c0-0.1,0-0.1,0.1-0.2c0-0.1,0-0.1,0.1-0.2c0.3-0.2,0.5-0.3,0.8-0.5c0.2-0.2,0.5-0.3,0.8-0.5l1.3,3.3v0.1
		c0,0,0,0-0.1,0c0,0-0.2,0-0.5-0.1l0,0l0,0c0,0-0.1,0-0.2,0c-0.1,0-0.1,0-0.1,0h-0.1c-0.4,0-0.6,0.2-0.8,0.5c-0.1,0.4,0,0.6,0.5,0.6
		c0,0,0.1,0,0.2,0h0.1c0.1,0,0.2,0,0.3,0s0.1,0,0.2,0c0.2,0,0.3,0,0.5,0s0.5,0,0.7,0s0.3,0,0.5,0.1c0.2,0,0.3,0.1,0.5,0.1
		c0.1,0,0.2,0,0.3,0.1c0.1,0,0.1,0,0.2,0c0.1,0,0.1,0,0.2,0h0.1c0.4,0,0.6-0.2,0.8-0.5c0.1-0.4,0-0.6-0.5-0.6c0,0-0.1,0-0.2,0
		c-0.1,0-0.1,0-0.2,0h-0.1l0,0c-0.1,0-0.2-0.1-0.3-0.3s-0.3-0.5-0.4-0.8L34,28.5l-0.1-0.3c0-0.1-0.1-0.1-0.1-0.1s0-0.1,0.1-0.1
		l3-1.7c0.2-0.1,0.5-0.2,0.7-0.2h0.1c0.1,0,0.1,0,0.2,0H38h0.1h0.1h0.1c0.4,0,0.6-0.2,0.7-0.5c0.1-0.4,0-0.6-0.5-0.6
		c-0.1,0-0.2,0-0.2,0c-0.1,0-0.2,0-0.3,0l0,0c-0.2,0-0.4,0-0.6,0c-0.2,0-0.3,0-0.5,0c-0.1,0-0.2,0-0.3,0s-0.2,0-0.4-0.1l-0.6-0.1
		c-0.1,0-0.1,0-0.2,0c-0.1,0-0.2,0-0.3,0s-0.1,0-0.2,0c-0.4,0-0.7,0.2-0.8,0.5c-0.1,0.4,0,0.6,0.5,0.7c0.1,0,0.2,0,0.3,0H35
		c0.1,0,0.2,0,0.4,0l0,0l0,0l0,0l-4,2.3l0.3-1.1c0.1-0.4,0.2-0.7,0.3-0.9c0.1-0.2,0.2-0.4,0.2-0.5c0.1-0.1,0.2-0.2,0.4-0.2
		c0,0,0,0,0.1,0s0.1,0,0.2,0c0.1,0,0.2,0.1,0.4,0.1c0,0,0,0,0.1,0s0.3,0,0.4-0.1c0.2-0.1,0.2-0.2,0.3-0.4c0.1-0.4-0.1-0.6-0.6-0.7
		c0,0-0.1,0-0.2,0c-0.1,0-0.3,0-0.6,0c-0.1,0-0.3,0-0.4,0c-0.3,0-0.5,0-0.6,0s-0.2,0-0.3,0s-0.2,0-0.3-0.1l-0.6-0.1h-0.1h-0.1
		c-0.1,0-0.1,0-0.2,0c-0.4,0-0.7,0.2-0.8,0.5c-0.1,0.4,0,0.6,0.4,0.6c0.1,0,0.1,0,0.2,0l0,0H30c0.1,0,0.2,0,0.2,0s0,0,0.1,0
		c0.3,0,0.3,0.3,0.2,0.8L29.7,27l-1,3.2c0,0.1-0.1,0.3-0.1,0.3c0,0.1-0.1,0.2-0.1,0.2v0.1c0,0,0,0.1-0.1,0.1
		c-0.1,0.5-0.3,0.7-0.6,0.7l0,0c0,0,0,0-0.1,0s-0.1,0-0.1,0c-0.1,0-0.2,0-0.2,0c-0.1,0-0.1,0-0.2,0h-0.1c-0.3,0-0.6,0.2-0.7,0.5
		C26.3,32.5,26.5,32.7,27,32.7z"/>
</g>
</svg>
