<?xml version="1.0" encoding="utf-8"?>
<!-- Generator: Adobe Illustrator 21.1.0, SVG Export Plug-In . SVG Version: 6.00 Build 0)  -->
<svg version="1.1" id="Layer_1" xmlns="http://www.w3.org/2000/svg" xmlns:xlink="http://www.w3.org/1999/xlink" x="0px" y="0px"
	 viewBox="0 0 64 64" style="enable-background:new 0 0 64 64;" xml:space="preserve">
<style type="text/css">
	.st0{fill:#FFFFFF;}
</style>
<g>
	<g>
		<path class="st0" d="M32,22.5c-1.4,0-2-0.5-2-0.5c0.3,0.4,0.5,0.8,0.4,1.3c0,0,0.4,0.5,1.6,0.5s1.6-0.5,1.6-0.5
			c-0.1-0.5,0.1-1,0.4-1.3C34,22,33.4,22.5,32,22.5z"/>
		<path class="st0" d="M62.1,31.4c-2.4-7.8-11.8-13.8-23.9-15.3c0.2,0.5,0.3,0.9,0.4,0.9c0,0.2,0.1,0.4,0.1,0.6
			c10.4,1.6,18.2,6.8,19.9,13.2c0.8,3.3,0.1,6.6-2.2,9.5C51.9,46,42.6,49.6,32,49.6S12.1,46,7.7,40.3c-2.3-3-3.1-6.3-2.2-9.5
			c1.7-6.4,9.4-11.6,19.9-13.2c0-0.2,0.1-0.4,0.1-0.6c0,0,0.1-0.4,0.4-0.9c-12.5,1.5-21.6,7.3-24,15.1c-1.3,4.2-0.5,8.5,2.2,12.2
			C8.9,50,18.9,53.7,31.5,53.7c12.9,0,23.5-4,28.4-10.7C62.6,39.5,63.4,35.4,62.1,31.4z"/>
		<path class="st0" d="M29,27.6c0,0.8,1.4,1.5,3,1.5c1.7,0,3-0.7,3-1.5c0-0.3-0.2-0.6-0.5-0.9l0,0c0,0.5-1.1,1-2.5,1
			c-1.4,0-2.5-0.4-2.5-1l0,0C29.2,27,29,27.3,29,27.6z"/>
		<path class="st0" d="M32,19.4c2,0,3.5-0.7,3.5-1.5c0-0.7-1-1.2-2.4-1.4C33,16,33,15.4,33.4,14.7c0.1-0.2,0.2-0.4,0.2-0.6
			c0-0.7-0.7-1.3-1.6-1.3c-0.9,0-1.6,0.6-1.6,1.3c0,0.2,0.1,0.4,0.2,0.6c0.4,0.7,0.4,1.3,0.3,1.8c-1.4,0.2-2.4,0.8-2.4,1.4
			C28.5,18.8,30.1,19.4,32,19.4z"/>
		<path class="st0" d="M29.3,25.3c0,0.8,1.2,1.5,2.7,1.5s2.7-0.7,2.7-1.5c0-0.4-0.2-0.7-0.7-1c-0.4,0.3-1.2,0.5-2,0.5
			s-1.6-0.2-2-0.5C29.6,24.5,29.3,24.9,29.3,25.3z"/>
		<path class="st0" d="M32,21.7c2.3,0,4.1-1.1,4.1-2.5c0-0.1,0-0.3-0.1-0.4c-0.4,0.9-2.1,1.6-4.1,1.6s-3.7-0.7-4.1-1.6
			c0,0.1-0.1,0.3-0.1,0.4C27.9,20.6,29.7,21.7,32,21.7z"/>
		<path class="st0" d="M28.4,29.7c0,1.1,1.6,2,3.6,2s3.6-0.9,3.6-2c0-0.4-0.2-0.7-0.5-1l0,0c0,0.9-1.4,1.6-3.1,1.6
			c-1.7,0-3.1-0.7-3.1-1.6l0,0C28.6,29,28.4,29.3,28.4,29.7z"/>
		<path class="st0" d="M11.8,31.4c-0.7,2.6,0,5.3,2,7.6c1.7,2,4.1,3.6,7.2,4.8c3.2,1.2,6.9,1.9,10.8,1.9s7.7-0.6,10.8-1.9
			c3-1.2,5.5-2.8,7.2-4.8c2-2.3,2.6-5,2-7.6c-0.7-3-3.2-5.7-7.1-7.6c-2.3-1.2-5-2-7.8-2.5c-0.3,0.4-0.7,0.8-1.2,1.1
			c-0.1,0.1-0.2,0.1-0.3,0.2c0,0,0,0.1,0.2,0.3c0.7,0.7,1,1.5,1,2.4c0,0.2,0,0.5-0.1,0.7c3.7,1,6.5,3.1,6.9,5.6
			c0.2,1.3-0.2,2.6-1.3,3.8c-1,1.1-2.4,2-4.2,2.6c-1.9,0.7-4,1-6.3,1c-2.2,0-4.4-0.4-6.3-1c-1.8-0.6-3.2-1.5-4.2-2.6
			c-1.1-1.2-1.5-2.5-1.3-3.8c0.4-2.6,3.3-4.8,7.3-5.7c0-0.2-0.1-0.4-0.1-0.6c0-0.9,0.4-1.7,1-2.4c0.3-0.3,0.2-0.3,0.2-0.3
			c-0.1-0.1-0.2-0.1-0.3-0.2c-0.5-0.3-0.9-0.7-1.2-1.1c-3,0.5-5.8,1.3-8.1,2.5C15,25.7,12.5,28.4,11.8,31.4z M42,28l-0.2-0.2
			c-0.5-0.4-1.1-0.8-1.7-1.1c-0.5-0.3-1.1-0.5-1.7-0.8l-0.7-0.3l0.6-0.5l2.4-2.1l0.2-0.2l0.3,0.1c1.2,0.4,2.3,0.9,3.4,1.4
			c0.7,0.3,1.3,0.7,1.9,1.1l0.8,0.5l-0.9,0.3l-4,1.6L42,28z M43.5,29.7l0.7-0.1l5.5-0.7H50l0.2,0.3c0.5,0.8,0.8,1.6,1,2.4
			s0.3,1.5,0.2,2.3v0.5l-0.5-0.1l-6.2-0.7l-0.5-0.1l0.1-0.5c0.1-0.5,0.1-1,0-1.5c-0.1-0.4-0.2-0.9-0.4-1.3L43.5,29.7z M39.6,38.3
			c1.4-0.6,2.5-1.4,3.3-2.4l0.2-0.2l6.3,2.5l-0.2,0.3c-1.3,1.5-3.1,2.9-5.3,3.9l-0.2,0.1l-4.5-4L39.6,38.3z M27,44.2l1.5-4.4
			l0.1-0.4l0.4,0.1c0.9,0.1,1.8,0.2,2.7,0.2s1.8-0.1,2.7-0.2l0.4-0.1l0.1,0.4l1.5,4.4l0.2,0.5L36,44.8c-1.4,0.2-2.9,0.3-4.3,0.3
			c-1.5,0-2.9-0.1-4.3-0.3l-0.6-0.1L27,44.2z M20.2,35.6l0.4-0.1l0.2,0.3c0.8,0.9,1.9,1.7,3.3,2.3l0.7,0.3l-0.5,0.5l-4.1,3.6
			l-0.3,0.2l-0.3-0.2c-2.2-1.1-4.1-2.4-5.4-4L13.8,38l0.6-0.2L20.2,35.6z M19.8,30.3c-0.2,0.4-0.3,0.8-0.4,1.3s-0.1,1,0,1.5l0.1,0.5
			L19,33.5l-6.2,0.7l-0.5,0.1v-0.5c-0.1-0.8,0-1.5,0.2-2.3s0.5-1.6,1-2.4l0.2-0.3H14l5.5,0.7l0.7,0.1L19.8,30.3z M22.5,22.9l0.3-0.1
			L23,23l2.4,2.1l0.6,0.5l-0.7,0.3c-0.6,0.2-1.2,0.5-1.7,0.8c-0.6,0.3-1.2,0.7-1.7,1.1L21.6,28l-0.3-0.1l-4-1.6L16.4,26l0.8-0.5
			c0.6-0.4,1.3-0.8,1.9-1.1C20.2,23.8,21.3,23.3,22.5,22.9z"/>
	</g>
</g>
</svg>
