<?xml version="1.0" encoding="utf-8"?>
<!-- Generator: Adobe Illustrator 21.1.0, SVG Export Plug-In . SVG Version: 6.00 Build 0)  -->
<svg version="1.1" id="Layer_1" xmlns="http://www.w3.org/2000/svg" xmlns:xlink="http://www.w3.org/1999/xlink" x="0px" y="0px"
	 viewBox="0 0 64 64" style="enable-background:new 0 0 64 64;" xml:space="preserve">
<style type="text/css">
	.st0{fill:#FFFFFF;}
</style>
<g>
	<polygon class="st0" points="19.7,34.8 19,29.3 18.2,29.3 19.3,36.5 20.2,36.5 21.3,29.3 20.5,29.3 	"/>
	<rect x="31.6" y="29.3" class="st0" width="0.8" height="7.1"/>
	<path class="st0" d="M44.7,29.3h-1.4v7.1h0.8v-2.7h0.6c0.9,0,1.3-0.4,1.3-1.3v-1.8C46,29.8,45.6,29.3,44.7,29.3z M45.2,32.5
		c0,0.4-0.2,0.5-0.5,0.5h-0.6v-3h0.6c0.4,0,0.5,0.2,0.5,0.5V32.5z"/>
	<path class="st0" d="M34.8,25h-5.5l0,0c-1.3,0-2.4,1.1-2.4,2.4v10.4c0,0.7,0.3,1.3,0.7,1.7c0.5,0.5,1.1,0.7,1.7,0.7h5.5
		c1.4,0,2.4-1.1,2.5-2.4V27.4C37.2,26.1,36.1,25,34.8,25z M36.1,37.9c0,0.7-0.6,1.3-1.3,1.3l0,0h-5.5c-0.7,0-1.3-0.6-1.3-1.3V27.5
		c0-0.7,0.6-1.3,1.3-1.3l0,0h5.5c0.7,0,1.3,0.6,1.3,1.3V37.9z"/>
	<path class="st0" d="M36.8,19.8c-0.4,0-0.7,0.3-0.7,0.7V22c0,0.4,0.3,0.7,0.7,0.7s0.7-0.3,0.7-0.7v-1.4
		C37.6,20.2,37.2,19.8,36.8,19.8z"/>
	<path class="st0" d="M35.1,37c-0.1,0-0.1,0-0.2,0.1l-0.1,0.2h-0.5l-0.1-0.2c0-0.1-0.1-0.1-0.2-0.1h-0.1l-0.1,0.1v0.1l0.4,1.1
		c0.1,0.1,0.1,0.2,0.2,0.2c0.1,0,0.2,0,0.2-0.2l0.4-1.1L35.1,37L35.1,37C35.2,37,35.1,37,35.1,37z M34.6,38.1l-0.1-0.4h0.3
		L34.6,38.1z"/>
	<path class="st0" d="M49.9,16.6H40c-0.6,0-1.1,0.3-1.4,0.7h-13c-0.3-0.4-0.8-0.7-1.4-0.7h-9.9c-7.5,0-13.6,5-13.6,12.5V35
		c0,7.5,6.1,12.5,13.6,12.5H50c7.5,0,13.6-5,13.6-12.5v-5.9C63.4,21.6,57.4,16.6,49.9,16.6z M61,29.9c-0.1,0-0.2,0-0.3,0
		c-1.2,0-2.1,0.9-2.1,2.1s0.9,2.1,2.1,2.1c0.1,0,0.2,0,0.3,0v1c0,2.4-0.8,4.6-2.2,6.4c-0.4-0.6-1-1-1.8-1c-1.2,0-2.1,0.9-2.1,2.1
		c0,0.6,0.3,1.2,0.7,1.6c-1.5,0.8-3.2,1.3-4.9,1.3H47c0-0.1,0-0.1,0-0.2c0-1.2-0.9-2.1-2.1-2.1c-1.2,0-2.1,0.9-2.1,2.1
		c0,0.1,0,0.1,0,0.2H21.2c0-0.1,0-0.1,0-0.2c0-1.2-0.9-2.1-2.1-2.1S17,44.1,17,45.3c0,0.1,0,0.1,0,0.2h-3.7c-1.8,0-3.5-0.5-4.9-1.3
		c0.4-0.4,0.7-1,0.7-1.6c0-1.2-0.9-2.1-2.1-2.1c-0.8,0-1.4,0.4-1.8,1c-1.4-1.8-2.2-4-2.2-6.4v-1c0.1,0,0.2,0,0.3,0
		c1.2,0,2.1-0.9,2.1-2.1c0-1.2-0.9-2.1-2.1-2.1c-0.1,0-0.2,0-0.3,0v-1c0-2.4,0.8-4.6,2.2-6.4c0.4,0.6,1,1.1,1.8,1.1
		c1.2,0,2.1-0.9,2.1-2.1c0-0.7-0.3-1.3-0.8-1.6c1.5-0.8,3.2-1.3,5-1.3H17c0,0.1,0,0.1,0,0.2c0,1.2,0.9,2.1,2.1,2.1s2.1-0.9,2.1-2.1
		c0-0.1,0-0.1,0-0.2h2.5c0.6,0,1.1-0.3,1.5-0.7h13.6c0.4,0.4,0.9,0.7,1.5,0.7h2.5c0,0.1,0,0.1,0,0.2c0,1.2,0.9,2.1,2.1,2.1
		c1.2,0,2.1-0.9,2.1-2.1c0-0.1,0-0.1,0-0.2h3.6c1.8,0,3.5,0.5,5,1.3c-0.5,0.4-0.8,1-0.8,1.6c0,1.2,0.9,2.1,2.1,2.1
		c0.8,0,1.5-0.4,1.8-1.1c1.4,1.8,2.2,4,2.2,6.4v1H61z"/>
	<path class="st0" d="M29.6,27c-0.1-0.1-0.1-0.2-0.2-0.2s-0.2,0-0.2,0.2l-0.4,1.1v0.1v0.1h0.1c0.1,0,0.1,0,0.2-0.1l0.1-0.2h0.5
		l0.1,0.2c0,0.1,0.1,0.1,0.2,0.1h0.1l0.1-0.1v-0.1L29.6,27z M29.2,27.7l0.1-0.4l0.1,0.4H29.2z"/>
	<path class="st0" d="M47.5,37c-0.1,0-0.1,0-0.2,0.1l-0.1,0.2h-0.5l-0.1-0.2c0-0.1-0.1-0.1-0.2-0.1h-0.1l-0.1,0.1v0.1l0.4,1.1
		c0.1,0.1,0.1,0.2,0.2,0.2c0.1,0,0.2,0,0.2-0.2l0.4-1.1L47.5,37L47.5,37C47.6,37,47.5,37,47.5,37z M47,38.1l-0.1-0.4h0.3L47,38.1z"
		/>
	<path class="st0" d="M42,27c-0.1-0.1-0.1-0.2-0.2-0.2c-0.1,0-0.2,0-0.2,0.2l-0.4,1.1v0.1v0.1h0.1c0.1,0,0.1,0,0.2-0.1l0.1-0.2H42
		l0.1,0.2c0,0.1,0.1,0.1,0.2,0.1h0.1l0.1-0.1v-0.1L42,27z M41.6,27.7l0.1-0.4l0.1,0.4H41.6z"/>
	<path class="st0" d="M47.2,25h-5.5l0,0c-1.3,0-2.4,1.1-2.4,2.4v10.4c0,0.7,0.3,1.3,0.7,1.7c0.5,0.5,1.1,0.7,1.7,0.7h5.5
		c1.4,0,2.4-1.1,2.5-2.4V27.4C49.6,26.1,48.5,25,47.2,25z M48.4,37.9c0,0.7-0.6,1.3-1.3,1.3l0,0h-5.5c-0.7,0-1.3-0.6-1.3-1.3V27.5
		c0-0.7,0.6-1.3,1.3-1.3l0,0h5.5c0.7,0,1.3,0.6,1.3,1.3V37.9z"/>
	<path class="st0" d="M27.9,22v-1.4c0-0.4-0.3-0.7-0.7-0.7c-0.4,0-0.7,0.3-0.7,0.7V22c0,0.4,0.3,0.7,0.7,0.7
		C27.6,22.8,27.9,22.4,27.9,22z"/>
	<path class="st0" d="M34.4,22.8c0.4,0,0.7-0.3,0.7-0.7v-1.4c0-0.4-0.3-0.7-0.7-0.7s-0.7,0.3-0.7,0.7V22
		C33.7,22.4,34,22.8,34.4,22.8z"/>
	<path class="st0" d="M29.6,22.8c0.4,0,0.7-0.3,0.7-0.7v-1.4c0-0.4-0.3-0.7-0.7-0.7c-0.4,0-0.7,0.3-0.7,0.7V22
		C28.8,22.4,29.2,22.8,29.6,22.8z"/>
	<path class="st0" d="M32,22.8c0.4,0,0.7-0.3,0.7-0.7v-1.4c0-0.4-0.3-0.7-0.7-0.7c-0.4,0-0.7,0.3-0.7,0.7V22
		C31.3,22.4,31.6,22.8,32,22.8z"/>
	<path class="st0" d="M17.3,27c-0.1-0.1-0.1-0.2-0.2-0.2s-0.2,0-0.2,0.2l-0.4,1.1v0.1v0.1h0.1c0.1,0,0.1,0,0.2-0.1l0.1-0.2h0.5
		l0.1,0.2c0,0.1,0.1,0.1,0.2,0.1h0.1l0.1-0.1v-0.1L17.3,27z M16.9,27.7l0.1-0.4l0.1,0.4H16.9z"/>
	<path class="st0" d="M22.5,25H17l0,0c-1.3,0-2.4,1.1-2.4,2.4v10.4c0,0.7,0.3,1.3,0.7,1.7c0.5,0.5,1.1,0.7,1.7,0.7h5.5
		c1.4,0,2.4-1.1,2.4-2.4V27.4C24.9,26.1,23.8,25,22.5,25z M23.8,37.9c0,0.7-0.6,1.3-1.3,1.3l0,0H17c-0.7,0-1.3-0.6-1.3-1.3V27.5
		c0-0.7,0.6-1.3,1.3-1.3l0,0h5.5c0.7,0,1.3,0.6,1.3,1.3V37.9z"/>
	<path class="st0" d="M22.8,37c-0.1,0-0.1,0-0.2,0.1l-0.1,0.2H22l0-0.1c0-0.1-0.1-0.1-0.2-0.1h-0.1l-0.1,0.1v0.1l0.4,1.1
		c0.1,0.1,0.1,0.2,0.2,0.2s0.2,0,0.2-0.2l0.4-1.1v-0.1v-0.1C22.9,37,22.8,37,22.8,37z M22.3,38.1l-0.1-0.4h0.3L22.3,38.1z"/>
</g>
</svg>
