<?xml version="1.0" encoding="utf-8"?>
<!-- Generator: Adobe Illustrator 21.1.0, SVG Export Plug-In . SVG Version: 6.00 Build 0)  -->
<svg version="1.1" id="Layer_1" xmlns="http://www.w3.org/2000/svg" xmlns:xlink="http://www.w3.org/1999/xlink" x="0px" y="0px"
	 viewBox="0 0 64 64" style="enable-background:new 0 0 64 64;" xml:space="preserve">
<style type="text/css">
	.st0{fill:#FFFFFF;}
</style>
<g>
	<path class="st0" d="M19,43.4c0-0.1,0-0.3-0.1-0.4c-0.1-0.2-0.3-0.4-0.6-0.4l0,0c-1.2-0.3-2.3-0.5-3.3-0.8c-0.7-0.2-1.3-0.3-2-0.4
		l0,0c-0.4-0.1-0.9,0-1.2,0.4l0,0l-2.9,3.6c-1,1.2-2,2.5-3.2,3.9l0,0c-0.2,0.2-0.3,0.5-0.2,0.8c0.1,0.3,0.3,0.5,0.6,0.6
		c2.5,0.9,5,1.6,7.5,2.2c0.5,0.1,1.1-0.1,1.3-0.6c1.4-2.8,2.7-5.6,3.9-8.4C18.9,43.6,19,43.5,19,43.4z M14,51.7h-0.1
		c-2.4-0.5-4.8-1.2-7.1-2.1c1.1-1.3,2-2.5,3-3.7c0,0,2.9-3.5,2.9-3.6l0,0l0,0c0.7,0.2,1.4,0.3,2,0.5c1,0.2,2,0.4,3,0.7
		C16.6,46.3,15.3,49,14,51.7z"/>
	<path class="st0" d="M11.6,46.4c-0.6,0.8,0.2,1.2,0.7,1.1c-0.2,0.2-0.5,0.5-0.7,0.7c0.3,0.1,0.6,0.2,0.9,0.2
		c0.1-0.3,0.2-0.5,0.3-0.8c0.2,0.3,1.2,0.4,1.7-0.5c0.4-0.8-0.1-1.8-0.3-2.1C13.5,45.2,12.1,45.6,11.6,46.4z"/>
	<path class="st0" d="M27.3,43.6L27.3,43.6c-1.8-0.1-4.2-0.2-6-0.2l0,0c-0.5,0-0.9,0.2-1.1,0.6l0,0c-0.6,1.5-1.1,2.9-1.6,4.3
		c-0.5,1.4-1.1,2.9-1.7,4.5l0,0c-0.1,0.3-0.1,0.6,0.1,0.8c0.2,0.3,0.4,0.4,0.8,0.5c2.8,0.3,5.6,0.5,8.4,0.5c0.6,0,1.1-0.4,1.2-1l0,0
		l0.9-9v-0.1c0-0.2-0.1-0.4-0.2-0.5C27.9,43.7,27.6,43.6,27.3,43.6z M26.3,53.4L26.3,53.4c-2.8,0-5.6-0.2-8.3-0.5
		c0.6-1.5,1.1-2.9,1.6-4.3c0.5-1.3,1-2.7,1.6-4.2l0,0l0,0c1.8,0,4,0.1,5.8,0.2C27,46.1,26.4,52.8,26.3,53.4z"/>
	<path class="st0" d="M22.6,49.5c0.1-0.1,0.3-0.2,0.4-0.4c-0.2,0.6-0.7,1.3-0.7,1.3c0.2,0,0.3,0,0.5,0s0.3,0,0.5,0
		c0,0-0.1-0.7-0.1-1.3c0.1,0.2,0.2,0.3,0.2,0.4c0.5,0.6,1.6,0.4,1.7-0.4c0.1-0.3-0.1-0.6-0.5-0.7c-0.4-0.1-0.7,0-1.1,0.1
		c0.2-0.2,0.4-0.4,0.6-0.6c0.1-0.1,0.1-0.2,0.2-0.3c0.1-0.4-0.3-0.8-0.8-0.8s-1,0.3-1.1,0.7c0,0.1,0,0.2,0,0.4
		c0.1,0.2,0.3,0.4,0.3,0.6c-0.3-0.1-0.6-0.3-1-0.2s-0.7,0.3-0.8,0.6C20.8,49.7,21.8,50,22.6,49.5z"/>
	<path class="st0" d="M61,44.2c-1.7-1.3-3.2-2.6-4.8-4c-0.8-0.7-1.6-1.4-2.5-2.1l0,0c-0.3-0.3-0.8-0.4-1.2-0.2
		c-0.8,0.4-1.6,0.8-2.5,1.2c-0.6,0.3-1.2,0.6-1.9,0.9l0,0c-0.2,0.1-0.4,0.3-0.5,0.5s0,0.5,0.1,0.7l0,0l0,0c1.2,1.5,2.3,3,3.4,4.5
		c0.7,1,1.4,1.9,2.2,2.9l0,0l0,0c0.3,0.4,1,0.5,1.4,0.3l0,0l0,0c1.9-1,3.5-2,5.1-2.9l0.9-0.5l0,0c0.3-0.2,0.4-0.4,0.4-0.7
		C61.4,44.7,61.3,44.4,61,44.2L61,44.2z M59.5,45.3c-1.6,1-3.2,1.9-5.1,2.9h-0.1c-0.7-1-1.5-1.9-2.2-2.9c-1-1.4-2.1-2.8-3.2-4.2
		c0.6-0.3,1.1-0.5,1.6-0.8c0.8-0.4,1.6-0.8,2.5-1.2c0.9,0.7,1.7,1.4,2.5,2.1c1.5,1.3,3,2.5,4.6,3.8C59.9,45.1,59.5,45.3,59.5,45.3z"
		/>
	<path class="st0" d="M53,42.2c-1.2-0.2-1.3,0.4-0.8,0.9c0.5,0.6,1.6,0.9,2.8,1c0.2-0.8,0.2-1.7-0.4-2.2C54,41.5,53.1,41.4,53,42.2z
		"/>
	<polygon class="st0" points="30.5,43.7 30.6,43.7 30.6,43.7 	"/>
	<path class="st0" d="M40,52.6c-0.7-2.8-1.5-5.7-2.4-8.8l0,0c-0.1-0.4-0.6-0.7-1.1-0.7l0,0c-0.8,0.1-1.5,0.1-2.2,0.2
		c-1.2,0.1-2.4,0.2-3.7,0.3c-0.5,0-0.9,0.4-0.9,0.9c0,3-0.1,6.1-0.1,9.1c0,0.3,0.1,0.5,0.3,0.7c0.2,0.2,0.5,0.3,0.9,0.3
		c2.8-0.1,5.6-0.4,8.4-0.8c0.3,0,0.6-0.2,0.8-0.5C40,53.1,40.1,52.9,40,52.6L40,52.6z M30.7,53.6L30.7,53.6c0-0.3,0-0.7,0-1
		c0-2.6,0-5.2,0.1-7.8c1.3-0.1,2.5-0.2,3.7-0.3c0.7-0.1,1.5-0.1,2.2-0.2c0.9,3,1.7,5.8,2.3,8.5C36.2,53.2,33.4,53.5,30.7,53.6z"/>
	<path class="st0" d="M32.5,48.6c0.6,0.7,1.3,1.3,1.9,1.9c0.5-0.7,0.9-1.5,1.4-2.2c-0.6-0.5-1.3-1.1-1.9-1.7
		C33.4,47.3,33,48,32.5,48.6z"/>
	<path class="st0" d="M51.7,49.7c-1.7-2.6-3.4-5.1-5.4-8l0,0c-0.2-0.4-0.7-0.6-1.2-0.4l0,0c-2.1,0.5-3.8,0.9-5.5,1.3l0,0
		c-0.3,0.1-0.5,0.2-0.6,0.4c0,0.2,0,0.5,0,0.7l0,0l0,0c1.1,3,2.1,5.8,3.1,8.8l0,0l0,0c0.2,0.5,0.8,0.8,1.3,0.7
		c2.6-0.6,5.2-1.3,7.7-2.1c0.3-0.1,0.5-0.3,0.6-0.6C51.9,50.2,51.8,49.9,51.7,49.7L51.7,49.7z M43.3,52.2
		C43.2,52.2,43.2,52.2,43.3,52.2c-1.1-3-2-5.7-3.1-8.6c1.6-0.4,3.3-0.8,5.3-1.3l0,0c1.9,2.8,3.5,5.3,5.2,7.8
		C48.2,50.9,45.8,51.6,43.3,52.2z"/>
	<path class="st0" d="M43.3,47.3c0.4,0.9,1.4,0.8,1.6,0.5c0.1,0.3,0.1,0.6,0.2,0.9c0.3-0.1,0.6-0.2,0.9-0.2
		c-0.2-0.2-0.4-0.5-0.6-0.7c0.5,0.1,1.3-0.3,0.8-1.1s-1.9-1.3-2.3-1.4C43.6,45.4,42.9,46.5,43.3,47.3z"/>
	<path class="st0" d="M28.1,27.5l-2.6-0.4c-1-0.2-1.9,0.3-1.8,1.1l0.3,2.7c0.1,0.8,1,1.1,2,0.7l2.4-0.9c0.4-0.1,0.6-0.6,0.6-1
		l-0.1-1.3C28.8,28,28.5,27.6,28.1,27.5z"/>
	<path class="st0" d="M35,26.2l-2.4,0.9c-0.4,0.1-0.6,0.6-0.6,1l0.1,1.3c0,0.4,0.3,0.8,0.7,0.8l2.6,0.4c1,0.2,1.9-0.3,1.8-1.1
		L37,26.9C36.9,26.1,35.9,25.8,35,26.2z"/>
	<path class="st0" d="M30.7,30.4c0.6-0.1,1-0.6,0.9-1.2l-0.1-0.8c-0.1-0.6-0.6-1.1-1.1-1c-0.6,0.1-1,0.6-0.9,1.2l0.1,0.8
		C29.6,30,30.1,30.5,30.7,30.4z"/>
	<path class="st0" d="M22,19.8c0.6-0.2,1.1-0.4,1.4-0.7c0.3,3.3,2.9,5.9,6,5.9c3.3,0,6.1-3,6.1-6.7c0-0.5-0.1-1-0.2-1.5h0.1
		c1-0.6,1.7-1.5,2.4-2.4c-0.6,0.2-1.2,0.3-1.9,0.3c0.5-0.5,0.9-0.9,1.2-1.5c-0.3,0.2-0.5,0.4-0.9,0.5c-0.3,0.1-0.7,0.1-1.1,0.2
		c0-0.4,0.7-0.7,0.6-1.2c-0.5,0.2-1.2,0.4-1.8,0.3c-0.5-1.6-1.7-3-3.3-3.5c-1.7-0.6-3.7-0.1-5.2,0.7c-0.4,0.2-0.7,0.5-1.1,0.5
		c-0.5,0-0.8-0.4-1-0.8c0,0.5,0.3,1,0.6,1.3c-0.6,0.1-1.5,0.8-1.8,1.3c0.3-0.2,1.3-0.1,1.6,0c-2,2-1,4.2-1.2,5.8
		C22.6,18.8,22.5,19.5,22,19.8z M24.5,17.9c0.3-0.6,0.3-1.2,0.3-1.7c0,0,0,0,0-0.1c2.5,2.7,6.7,2.5,9.5,1.3c0,0.3,0.1,0.6,0.1,0.9
		c0,3.1-2.2,5.6-5,5.6s-5-2.5-5-5.6C24.5,18.2,24.5,18.1,24.5,17.9z"/>
	<path class="st0" d="M61.3,32.2c-0.5-0.2-1.1-0.3-1.6-0.4c-0.2,0-0.5-0.1-0.6-0.1c-1.2-0.3-2.1-0.8-3-1.2c-0.6-0.3-1.2-0.6-2-0.9
		c-0.5-0.2-1-0.3-1.5-0.3l0.3-0.6c0,0-6.1-3.3-10.2-5.6c-4.1-2.2-8.5,4.8,0.2,6.7c2.9,0.7,7.5,3.4,7.5,3.4l0.3-0.6
		c0.2,0.4,0.4,0.8,0.7,1.1c0.8,0.7,1.2,2,1.4,2.7c0.1,0.4,0.4,0.8,0.9,0.9c0.5,0.1,1-0.1,1.3-0.5s0.3-1,0.3-1.5c0-0.4,0-0.9,0.2-1
		c0.1-0.1,0.3-0.1,0.9,0c1.2,0.3,4,1,5.2,0.3c0.3-0.2,0.5-0.5,0.6-0.8C62.2,33.2,62.1,32.6,61.3,32.2z M61.1,33.8
		c-0.7,0.4-2.8,0.1-4.5-0.4c-0.7-0.2-1.3-0.2-1.6,0.1c-0.5,0.4-0.5,1.1-0.5,1.7c0,0.4,0,0.8-0.2,1c-0.1,0.2-0.3,0.2-0.5,0.2
		c-0.1,0-0.2-0.1-0.2-0.2c-0.1-0.4-0.5-2.1-1.6-3.1c-0.3-0.3-0.6-1-0.6-1.7l0.6-1.2l0,0c0.4-0.2,1-0.2,1.7,0.1
		c0.7,0.3,1.3,0.6,1.9,0.9c0.9,0.5,1.8,0.9,3.1,1.3c0.2,0.1,0.5,0.1,0.7,0.1c1.3,0.2,1.9,0.4,1.8,1C61.3,33.7,61.3,33.8,61.1,33.8z"
		/>
	<path class="st0" d="M8.5,38.7c0.2,0.1,0.4,0.5,0.5,0.9c0.2,0.5,0.3,1,0.7,1.3s1,0.4,1.4,0.1c0.4-0.2,0.6-0.6,0.6-1.1
		c0-0.7,0-2.1,0.6-2.9c0.3-0.4,0.4-0.9,0.4-1.5l0.4,0.4c0,0,2.6-2.7,5.3-4.3c8.1-4.7,2.3-9.9-1.2-6.5s-7.5,7.2-7.5,7.2l0.5,0.6
		c-0.5,0-1.1,0.3-1.6,0.7c-0.7,0.5-1.2,1-1.7,1.4c-0.8,0.7-1.5,1.3-2.6,2c-0.2,0.1-0.4,0.2-0.6,0.3c-0.5,0.2-1,0.5-1.4,0.8
		C1.7,38.9,1.8,39.6,2,40c0.1,0.3,0.4,0.6,0.8,0.7c1.4,0.4,3.9-1,4.9-1.6C8.2,38.7,8.4,38.7,8.5,38.7z M3,39.8
		c-0.1,0-0.2-0.1-0.3-0.2c-0.2-0.5,0.3-0.9,1.5-1.4c0.2-0.1,0.5-0.2,0.7-0.3c1.2-0.7,1.9-1.4,2.7-2.1c0.5-0.4,1-0.9,1.6-1.4
		s1.2-0.6,1.6-0.5c0.6,0.2,0.9,0.9,0.9,0.9c0.3,0.7,0.2,1.5-0.1,1.9c-0.9,1.2-0.8,3.1-0.8,3.4c0,0.1,0,0.2-0.2,0.3
		c-0.1,0.1-0.3,0.1-0.5,0c-0.2-0.2-0.3-0.6-0.4-0.9c-0.2-0.6-0.4-1.2-1-1.5c-0.4-0.2-0.9,0-1.6,0.3C5.7,39.3,3.7,40.1,3,39.8z"/>
</g>
</svg>
