<?xml version="1.0" encoding="utf-8"?>
<!-- Generator: Adobe Illustrator 21.1.0, SVG Export Plug-In . SVG Version: 6.00 Build 0)  -->
<svg version="1.1" id="Layer_1" xmlns="http://www.w3.org/2000/svg" xmlns:xlink="http://www.w3.org/1999/xlink" x="0px" y="0px"
	 viewBox="0 0 64 64" style="enable-background:new 0 0 64 64;" xml:space="preserve">
<style type="text/css">
	.st0{fill:#FFFFFF;}
</style>
<g>
	<g>
		<path class="st0" d="M52.7,35C52.6,35,52.6,35,52.7,35C52.6,34.9,52.6,34.9,52.7,35L46,23.5c-0.2-0.3-0.5-0.4-0.8-0.4l0,0H32l0,0
			l0,0H18.8l0,0c-0.3,0-0.6,0.2-0.8,0.4L11.4,35l0,0c0,0,0,0.1-0.1,0.1c-0.1,0.3-0.1,0.7,0.2,1l19.8,20.4l0,0
			c0.2,0.1,0.4,0.2,0.6,0.2c0.2,0,0.4-0.1,0.6-0.3l0,0l20-20.4C52.7,35.7,52.8,35.3,52.7,35z M50.3,34.5H40.2l5.1-8.8L50.3,34.5z
			 M37.4,36.2L32,52.8l-5.4-16.6C26.6,36.2,37.4,36.2,37.4,36.2z M26.9,34.5l5.1-8.8l5.1,8.8H26.9z M33.5,24.8h10.1l-5.1,8.8
			L33.5,24.8z M25.4,33.6l-5.1-8.8h10.1L25.4,33.6z M18.8,25.7l5.1,8.8H13.7L18.8,25.7z M14.3,36.2h10.5L30,52.4L14.3,36.2z
			 M34,52.4l5.2-16.1h10.5L34,52.4z"/>
		<g>
			<polygon class="st0" points="40.3,14.4 38.4,20.7 40.2,20.7 41.1,14.6 40.9,13.8 			"/>
		</g>
		<g>
			<polygon class="st0" points="55.8,23.4 51.6,28.5 50.6,26.9 55.2,22.9 56,22.7 			"/>
		</g>
		<g>
			<polygon class="st0" points="31.5,8.2 30.9,20.6 33.1,20.6 32.5,8.2 32,7.4 			"/>
		</g>
		<g>
			<path class="st0" d="M50.5,13.5c0,0-3.5,5.2-4.8,7.2c0.7,0,1.6,0.5,2,1.1c1.1-2.3,3.7-7.8,3.7-7.8v-0.9L50.5,13.5z"/>
		</g>
		<g>
			<polygon class="st0" points="23.7,14.4 25.6,20.7 23.8,20.7 22.9,14.6 23.1,13.8 			"/>
		</g>
		<g>
			<polygon class="st0" points="8.2,23.4 12.4,28.5 13.4,26.9 8.8,22.9 8,22.7 			"/>
		</g>
		<g>
			<path class="st0" d="M13.5,13.5c0,0,3.5,5.2,4.8,7.2c-0.7,0-1.6,0.5-2,1.1c-1.1-2.3-3.7-7.8-3.7-7.8v-0.9L13.5,13.5z"/>
		</g>
	</g>
</g>
</svg>
