<?xml version="1.0" encoding="utf-8"?>
<!-- Generator: Adobe Illustrator 21.1.0, SVG Export Plug-In . SVG Version: 6.00 Build 0)  -->
<svg version="1.1" id="Layer_1" xmlns="http://www.w3.org/2000/svg" xmlns:xlink="http://www.w3.org/1999/xlink" x="0px" y="0px"
	 viewBox="0 0 64 64" style="enable-background:new 0 0 64 64;" xml:space="preserve">
<style type="text/css">
	.st0{fill:#FFFFFF;}
</style>
<g>
	<g>
		<path class="st0" d="M23.2,37.9c0,0.6,0,1.6,0.1,3.1h-0.1l-4.9-8.5h-3v11.3h2.1v-5.3c0-0.6,0-1.7-0.1-3.2h0.1l4.9,8.5h3V32.6h-2.2
			v5.3H23.2z"/>
		<polygon class="st0" points="27,43.9 33.5,43.9 33.5,41.9 29.4,41.9 29.4,39 33.2,39 33.2,37 29.4,37 29.4,34.5 33.5,34.5 
			33.5,32.6 27,32.6 		"/>
		<path class="st0" d="M46.2,38.7c-0.1,0.4-0.2,0.9-0.3,1.5s-0.2,1.1-0.2,1.5c-0.1-0.4-0.1-0.9-0.2-1.5c-0.1-0.6-0.2-1-0.3-1.3
			l-1.6-6.3h-2.3l-1.6,6.3c-0.1,0.3-0.2,0.8-0.3,1.4c-0.1,0.6-0.2,1.1-0.2,1.4c-0.1-0.8-0.3-1.8-0.5-3L37,32.6h-2.4l2.9,11.3h2.7
			l1.5-5.9c0.1-0.3,0.2-0.7,0.3-1.3s0.2-1.1,0.2-1.3c0,0.2,0.1,0.7,0.2,1.3c0.1,0.7,0.2,1.1,0.3,1.3l1.5,5.9h2.7l2.9-11.3h-2.4
			L46.2,38.7z"/>
		<path class="st0" d="M55.8,27.5c0-1.2-0.4-2.9-1.7-4.2c-1.5-1.5-2-1.6-4.1-1.6c-0.1,0-0.2,0-0.3,0l-35-0.1h-0.1
			c-4.4,0-6,3.4-6,5.7L8.2,49.7c0,1.1,0.6,2.9,1.8,4.1c1.1,1.1,2.4,1.6,3.9,1.6l36.3,0.1l0,0c1.3,0,2.8-0.7,3.9-1.8
			c0.8-0.8,1.7-2.2,1.6-4.3L55.8,27.5z M53.7,49.8c0,1.9-1.6,3.4-3.6,3.4H14.2c-0.5,0-0.9-0.1-1.3-0.3c-1.4-0.5-2.2-1.8-2.2-3.2
			V27.4c0-1.9,1.6-3.5,3.6-3.5v-0.4v0.4L50.1,24c0.5,0,0.9,0.1,1.3,0.3c1.4,0.5,2.2,1.8,2.2,3.3L53.7,49.8z"/>
		<circle class="st0" cx="17.7" cy="27" r="0.9"/>
		<circle class="st0" cx="22.4" cy="27" r="0.9"/>
		<circle class="st0" cx="27.1" cy="27" r="0.9"/>
		<circle class="st0" cx="31.9" cy="27" r="0.9"/>
		<circle class="st0" cx="36.6" cy="27" r="0.9"/>
		<circle class="st0" cx="41.3" cy="27" r="0.9"/>
		<circle class="st0" cx="46" cy="27" r="0.9"/>
		<circle class="st0" cx="17.9" cy="50" r="0.9"/>
		<circle class="st0" cx="22.6" cy="50" r="0.9"/>
		<circle class="st0" cx="27.3" cy="50" r="0.9"/>
		<circle class="st0" cx="32" cy="50" r="0.9"/>
		<circle class="st0" cx="36.7" cy="50" r="0.9"/>
		<circle class="st0" cx="41.4" cy="50" r="0.9"/>
		<circle class="st0" cx="46.2" cy="50" r="0.9"/>
	</g>
	<g>
		<path class="st0" d="M29.4,14.1l-0.4,2c-0.1,0.3,0.1,0.6,0.3,0.8c0.1,0.1,0.3,0.2,0.5,0.2c0.1,0,0.3,0,0.4-0.1l1.9-1l1.9,1
			c0.1,0.1,0.3,0.1,0.4,0.1c0.2,0,0.3-0.1,0.5-0.2c0.3-0.2,0.4-0.5,0.3-0.8L34.8,14l1.5-1.5c0.2-0.2,0.3-0.5,0.2-0.8
			s-0.4-0.5-0.7-0.6l-2.1-0.3L32.8,9c-0.1-0.3-0.4-0.5-0.7-0.5S31.5,8.7,31.3,9l-0.9,1.9l-2.1,0.3c-0.3,0-0.6,0.3-0.7,0.6
			s0,0.6,0.2,0.8L29.4,14.1z M30.5,11.8l0.5-0.1l0.2-0.4l0.9-1.8l0.9,1.8l0.2,0.4l0.5,0.1l1.9,0.3l-1.4,1.4l-0.3,0.3l0.1,0.5
			l0.3,1.9l-1.7-0.9L32.1,15l-0.4,0.2L30,16.1l0.3-1.9l0.1-0.5L30,13.4L28.6,12L30.5,11.8z"/>
		<path class="st0" d="M19.9,17.3l-0.4,2.1c-0.1,0.3,0.1,0.6,0.3,0.8c0.1,0.1,0.3,0.2,0.5,0.2c0.1,0,0.3,0,0.4-0.1l1.9-1l1.9,1
			c0.1,0.1,0.3,0.1,0.4,0.1c0.2,0,0.3-0.1,0.5-0.2c0.3-0.2,0.4-0.5,0.3-0.8l-0.4-2.1l1.5-1.5c0.2-0.2,0.3-0.5,0.2-0.8
			c-0.1-0.3-0.4-0.5-0.7-0.6l-2.1-0.3l-0.9-1.9c-0.1-0.3-0.4-0.5-0.7-0.5c-0.3,0-0.6,0.2-0.7,0.5L21,14.1l-2.1,0.3
			c-0.3,0-0.6,0.3-0.7,0.6s0,0.6,0.2,0.8L19.9,17.3z M21.1,15l0.5-0.1l0.2-0.4l0.9-1.8l0.9,1.8l0.2,0.4l0.5,0.1l1.9,0.3l-1.4,1.4
			L24.4,17l0.1,0.5l0.3,1.9l-1.7-0.9l-0.4-0.2l-0.4,0.2l-1.7,0.9l0.3-1.9L21,17l-0.3-0.3l-1.4-1.4L21.1,15z"/>
		<path class="st0" d="M38.6,17.3l-0.4,2.1c-0.1,0.3,0.1,0.6,0.3,0.8c0.1,0.1,0.3,0.2,0.5,0.2c0.1,0,0.3,0,0.4-0.1l1.9-1l1.9,1
			c0.1,0.1,0.3,0.1,0.4,0.1c0.2,0,0.3-0.1,0.5-0.2c0.3-0.2,0.4-0.5,0.3-0.8L44,17.3l1.5-1.5c0.2-0.2,0.3-0.5,0.2-0.8
			s-0.4-0.5-0.7-0.6l-2-0.3l-0.9-1.9c-0.1-0.3-0.4-0.5-0.7-0.5s-0.6,0.2-0.7,0.5l-0.9,1.9l-2.1,0.3c-0.3,0-0.6,0.3-0.7,0.6
			c-0.1,0.3,0,0.6,0.2,0.8L38.6,17.3z M39.8,15l0.5-0.1l0.2-0.4l0.9-1.8l0.9,1.8l0.2,0.4L43,15l1.9,0.3l-1.4,1.4L43.1,17l0.1,0.5
			l0.3,1.9l-1.7-0.9l-0.4-0.2L41,18.5l-1.7,0.9l0.3-1.9l0.1-0.5l-0.3-0.3L38,15.3L39.8,15z"/>
	</g>
</g>
</svg>
