<?xml version="1.0" encoding="utf-8"?>
<!-- Generator: Adobe Illustrator 21.1.0, SVG Export Plug-In . SVG Version: 6.00 Build 0)  -->
<svg version="1.1" id="Layer_1" xmlns="http://www.w3.org/2000/svg" xmlns:xlink="http://www.w3.org/1999/xlink" x="0px" y="0px"
	 viewBox="0 0 64 64" style="enable-background:new 0 0 64 64;" xml:space="preserve">
<style type="text/css">
	.st0{fill:#FFFFFF;}
</style>
<g>
	<path class="st0" d="M46.2,19.7c-2.1-1.4-4.7-1.4-6.5-1.4h-0.1h-0.1h-1.3v1.3v22.2v1.3h1.3c0.2,0,0.4,0,0.5,0
		c1.6,0,4.1-0.1,6.3-1.5c2.9-1.9,4.5-5.9,4.5-11C50.8,25.6,49.1,21.7,46.2,19.7z M41.7,37.6c-0.8,1.3-1.6,2.1-2.3,2.5
		c0-4.1,0-14.2,0-18.5c1,0.5,2.3,1.6,3,3.7C43.6,29,44.2,33.4,41.7,37.6z"/>
	<path class="st0" d="M51.9,18.4c-2.9-3.8-6.4-4.5-8.9-4.9s-11-1.4-11-1.4l-5.1,1.7v0.7c-1.5-1-3.6-1.9-6.7-1.9
		c-4,0-7.4,1.9-9.1,2.9l-1.9,1.1l3.3,7.9l2.3-1.1c0.9-0.4,2.8-1.1,4.7-1.1c0.8,0,1.3,0.2,1.6,0.5c0.4,0.4,0.4,1.1,0.4,1.5
		c-0.1,0.9-0.4,2.2-2.7,2.2h-2.1l-2.6,0.1v7.1h4.6c3,0,3.6,1.4,3.7,2.9c0.1,0.8-0.1,1.5-0.6,2c-0.6,0.6-1.5,1-3,1
		c-2.4,0-4.7-0.5-5.7-0.8L11,38.2l-0.3,0.7c0,0-1.5,3.5-2,5l-0.5,2.2l2,0.9c1.8,0.8,4.9,2.2,8.7,2.2c3.5,0,6-0.9,7.9-1.9v0.4
		l5.1,1.5c0,0,10.6-1.1,11.6-1.3c2-0.4,4.2-1,6.6-2.8C55.6,40.8,58.7,27.2,51.9,18.4z M28.8,44.8c-1.6,1.6-4.6,3.6-9.8,3.6
		c-3.6,0-6.6-1.3-8.4-2.1l-1.4-0.6l0.3-1.5c0.5-1.4,2-4.9,2-4.9l1.4,0.4c1,0.3,3.5,0.8,5.9,0.8c1.8,0,3-0.5,3.7-1.3
		c0.6-0.7,0.9-1.7,0.8-2.7c-0.1-1.6-0.8-3.7-4.6-3.7H15v-5.5h1.8h2c1.2,0,3.4-0.3,3.6-3c0-0.5,0-1.5-0.6-2.2
		c-0.5-0.5-1.2-0.8-2.3-0.8c-2.2,0-4.3,0.9-5.1,1.2l-1.5,0.7L10.2,17l1.2-0.7c1.6-0.9,4.9-2.8,8.7-2.8c4,0,6.4,1.6,7.6,2.9
		c1.6,1.7,2.5,4,2.4,6.5c-0.1,2.7-1.8,5.1-3.9,6.8c2.8,1.5,5.4,4.2,5.4,7.8C31.7,40.3,30.7,42.9,28.8,44.8z M49.3,44.1
		c-2,1.6-3.8,2.2-6,2.6c-0.6,0.1-6,0.7-10,1.1V13.6c2.5,0.3,7.7,0.9,9.5,1.2c2.6,0.4,5.5,1.1,8.1,4.4C57.2,27.3,54.4,40.1,49.3,44.1
		z"/>
</g>
</svg>
