<?xml version="1.0" encoding="utf-8"?>
<!-- Generator: Adobe Illustrator 21.1.0, SVG Export Plug-In . SVG Version: 6.00 Build 0)  -->
<svg version="1.1" id="Layer_1" xmlns="http://www.w3.org/2000/svg" xmlns:xlink="http://www.w3.org/1999/xlink" x="0px" y="0px"
	 viewBox="0 0 64 64" style="enable-background:new 0 0 64 64;" xml:space="preserve">
<style type="text/css">
	.st0{fill:#FFFFFF;}
</style>
<g>
	<path class="st0" d="M47.4,16.6c-4.3-4.3-9.8-6.4-15.4-6.4s-11.2,2.1-15.4,6.4c-4.3,4.3-6.4,9.8-6.4,15.4s2.1,11.2,6.4,15.4
		c4.3,4.3,9.8,6.4,15.4,6.4s11.2-2.1,15.4-6.4c4.3-4.3,6.4-9.8,6.4-15.4C53.8,26.4,51.7,20.8,47.4,16.6z M46.1,46.1
		C42.2,50,37.1,52,32,52s-10.2-2-14.1-5.9S12,37.1,12,32s2-10.2,5.9-14.1S26.9,12,32,12s10.2,2,14.1,5.9S52,26.9,52,32
		S50,42.2,46.1,46.1z"/>
	<path class="st0" d="M48.9,36.5c0.4-1.5,0.6-3,0.6-4.5s-0.2-3-0.6-4.5c0,0,0,0,0-0.1l0,0c-0.8-2.9-2.3-5.6-4.5-7.8
		s-4.9-3.7-7.8-4.5l0,0c0,0,0,0-0.1,0c-1.5-0.4-3-0.6-4.5-0.6s-3,0.2-4.5,0.6c0,0,0,0-0.1,0l0,0c-2.9,0.8-5.6,2.3-7.8,4.5
		s-3.7,4.9-4.5,7.8l0,0c0,0,0,0,0,0.1c-0.4,1.5-0.6,3-0.6,4.5c0,1.5,0.2,3,0.6,4.5c0,0,0,0,0,0.1l0,0c0.8,2.9,2.3,5.6,4.5,7.8
		s4.9,3.7,7.8,4.5l0,0c0,0,0,0,0.1,0c1.5,0.4,3,0.6,4.5,0.6c1.5,0,3-0.2,4.5-0.6c0,0,0,0,0.1,0l0,0c2.9-0.8,5.6-2.3,7.8-4.5
		S48.1,39.5,48.9,36.5C48.9,36.6,48.9,36.5,48.9,36.5L48.9,36.5z M43.9,43l-9.8-9.8l13.4,3.6C46.8,39.1,45.6,41.2,43.9,43z
		 M36.8,47.5l-3.6-13.4l9.8,9.8C41.2,45.6,39.1,46.8,36.8,47.5z M15.8,32c0-1.2,0.1-2.4,0.4-3.6L29.6,32l-13.4,3.6
		C15.9,34.4,15.8,33.2,15.8,32z M20.1,21l9.8,9.8l-13.4-3.6C17.2,24.9,18.4,22.8,20.1,21z M27.2,16.5l3.6,13.4L21,20.1
		C22.8,18.4,24.9,17.2,27.2,16.5z M34.4,32l13.4-3.6c0.3,1.2,0.4,2.4,0.4,3.6s-0.1,2.4-0.4,3.6L34.4,32z M47.5,27.2l-13.4,3.6
		l6.2-6.2V27c0,0.5,0.4,0.8,0.8,0.8c0.5,0,0.8-0.4,0.8-0.8v-4.1c0-0.5-0.4-0.8-0.8-0.8H37c-0.5,0-0.8,0.4-0.8,0.8
		c0,0.5,0.4,0.8,0.8,0.8h2.4l-6.2,6.2l3.6-13.4c2.4,0.8,4.7,2.1,6.7,4S46.7,24.8,47.5,27.2z M32,15.8c1.2,0,2.4,0.1,3.6,0.4L32,29.6
		l-3.6-13.4C29.6,15.9,30.8,15.8,32,15.8z M16.5,36.8l13.4-3.6l-6.7,6.7c-0.1,0.1-0.1,0.1-0.1,0.2c0,0,0,0-0.1,0h-2.3
		c-0.5,0-0.9,0.4-0.9,0.9s0.4,0.9,0.9,0.9h1.4v1.4c0,0.5,0.4,0.9,0.9,0.9s0.9-0.4,0.9-0.9V41c0,0,0,0,0-0.1c0.1,0,0.1-0.1,0.2-0.1
		l6.7-6.7l-3.6,13.4c-2.4-0.8-4.7-2.1-6.7-4C18.6,41.5,17.3,39.2,16.5,36.8z M32,48.2c-1.2,0-2.4-0.1-3.6-0.4L32,34.4l3.6,13.4
		C34.4,48.1,33.2,48.2,32,48.2z"/>
</g>
</svg>
