<?xml version="1.0" encoding="utf-8"?>
<!-- Generator: Adobe Illustrator 21.1.0, SVG Export Plug-In . SVG Version: 6.00 Build 0)  -->
<svg version="1.1" id="Layer_1" xmlns="http://www.w3.org/2000/svg" xmlns:xlink="http://www.w3.org/1999/xlink" x="0px" y="0px"
	 viewBox="0 0 64 64" style="enable-background:new 0 0 64 64;" xml:space="preserve">
<style type="text/css">
	.st0{fill:#FFFFFF;}
</style>
<g>
	<g>
		<path class="st0" d="M38.2,45.2c0.4,0.3,0.7,0.6,0.7,0.8l0,0l0,0c0-0.3,0.3-0.5,0.7-0.8c0.5-0.4,1-0.8,1-1.3S40.2,43,39.7,43
			c-0.4,0-0.7,0.2-0.8,0.6c0.1-0.9,0.7-1.2,0.7-1.2h-0.8H38c0,0,0.6,0.3,0.7,1.2c0-0.3-0.3-0.6-0.7-0.6c-0.5,0-0.9,0.4-0.9,0.9
			C37.2,44.4,37.7,44.8,38.2,45.2z"/>
		<path class="st0" d="M39.4,46.6C39.3,46.6,39.3,46.6,39.4,46.6v0.3l0,0c0.2,0,0.3,0,0.4,0.1c0.1,0,0.1,0.1,0.1,0.1s0,0,0,0.1
			c0,0,0,0,0,0.1l-0.4,1H38c-0.1-0.1-0.1-0.3-0.1-0.4c0-0.1-0.1-0.2-0.1-0.3s0-0.2-0.1-0.2c0-0.1,0-0.1,0-0.1c0-0.1,0.1-0.1,0.2-0.2
			c0.1,0,0.3-0.1,0.4-0.1l0,0v-0.2l0,0h-1.7l0,0V47l0,0c0.1,0,0.1,0,0.2,0c0.1,0,0.1,0,0.2,0.1c0.1,0.1,0.1,0.1,0.2,0.2
			c0,0.1,0.1,0.1,0.1,0.2c0.2,0.6,0.5,1.2,0.8,1.9s0.5,1.3,0.7,1.9l0,0h0.3l0,0l1.5-3.9c0-0.1,0.1-0.1,0.1-0.2c0,0,0.1-0.1,0.2-0.1
			c0,0,0.1,0,0.2-0.1c0.1,0,0.1,0,0.2,0l0,0v-0.2l0,0h-1.9V46.6z M38.7,50.1l-0.6-1.6h1.2L38.7,50.1z"/>
		<path class="st0" d="M31.9,30.8c-1.5-1.3-3-2.4-3-3.6c0-0.1-0.1-0.2-0.2-0.2s-0.2,0.1-0.2,0.2c0,1.1-1.4,2.3-3,3.6
			c-1.9,1.6-4.1,3.3-4.1,5.6c0,2,1.6,3.6,3.6,3.6c1.6,0,2.8-1,3.3-2.4c-0.4,3.9-2.9,4.9-2.9,4.9h3.3H32c0,0-2.6-1.1-2.9-4.9
			c0.5,1.4,1.7,2.4,3.3,2.4c2,0,3.6-1.6,3.6-3.6C36,34.1,33.8,32.4,31.9,30.8z"/>
		<path class="st0" d="M19.1,24.3c-0.4-0.3-0.7-0.6-0.7-0.8l0,0l0,0c0,0.3-0.3,0.5-0.7,0.8c-0.5,0.4-1,0.8-1,1.3s0.4,0.9,0.9,0.9
			c0.4,0,0.7-0.2,0.8-0.6c-0.1,0.9-0.7,1.2-0.7,1.2h0.8h0.8c0,0-0.6-0.3-0.7-1.2c0.1,0.3,0.4,0.6,0.8,0.6c0.5,0,0.9-0.4,0.9-0.9
			C20.1,25.1,19.6,24.7,19.1,24.3z"/>
		<path class="st0" d="M20.5,22.6c-0.1,0-0.1,0-0.2-0.1c-0.1,0-0.1-0.1-0.2-0.1c0,0-0.1-0.1-0.1-0.2l-1.5-3.9l0,0h-0.3l0,0
			c-0.2,0.6-0.5,1.2-0.7,1.9c-0.3,0.7-0.5,1.4-0.8,1.9c0,0.1-0.1,0.2-0.1,0.2c0,0.1-0.1,0.1-0.2,0.2c0,0-0.1,0.1-0.2,0.1
			s-0.1,0-0.2,0l0,0v0.2l0,0h1.7l0,0v-0.2l0,0c-0.2,0-0.3,0-0.4-0.1c-0.1,0-0.2-0.1-0.2-0.2v-0.1c0-0.1,0-0.1,0.1-0.2
			c0-0.1,0.1-0.2,0.1-0.3c0-0.1,0.1-0.2,0.1-0.4H19l0.4,1c0,0,0,0,0,0.1c0,0,0,0,0,0.1c0,0,0,0-0.1,0.1c-0.1,0-0.2,0.1-0.4,0.1l0,0
			v0.2l0,0h1.9l0,0v-0.2l0,0C20.7,22.6,20.6,22.6,20.5,22.6z M17.6,21l0.6-1.6l0.6,1.6H17.6z"/>
		<path class="st0" d="M47.4,9H23.2c-2.3,0-4.2,1.9-4.2,4.2v1.4h-2.4l0,0c-0.6,0-1.1,0.1-1.6,0.3c-0.3,0.1-0.5,0.2-0.7,0.4
			c-0.5,0.3-0.8,0.7-1.1,1.1c-0.5,0.7-0.7,1.5-0.7,2.4v31.9c0,2.3,1.9,4.2,4.2,4.2h24.2c1.2,0,2.2-0.5,3-1.2c0.8-0.8,1.2-1.8,1.2-3
			v-1.4h2.4c2.3,0,4.2-1.9,4.2-4.2V13.2C51.6,10.9,49.7,9,47.4,9z M43.5,50.8c0,1.5-1.2,2.7-2.7,2.7H16.6c-1.5,0-2.7-1.2-2.7-2.7
			V18.9c0-1.5,1.2-2.7,2.7-2.7h24.2c1.5,0,2.7,1.2,2.7,2.7C43.5,18.9,43.5,50.8,43.5,50.8z M24.5,14.6l0.3-0.8l0.3,0.8H24.5z
			 M50.1,45.1c0,1.5-1.2,2.7-2.7,2.7H45v-3c0.1,0.3,0.2,0.5,0.3,0.7l0,0h0.3l0,0l1.5-3.9c0-0.1,0.1-0.1,0.1-0.2c0,0,0.1-0.1,0.2-0.1
			c0,0,0.1,0,0.2-0.1c0.1,0,0.1,0,0.2,0l0,0V41l0,0h-1.9l0,0v0.2l0,0c0.2,0,0.3,0,0.4,0.1c0.1,0,0.1,0.1,0.1,0.1s0,0,0,0.1
			c0,0,0,0,0,0.1l-0.4,1h-1v-2.2c0.1,0.1,0.3,0.2,0.4,0.2c0.4,0,0.8-0.4,0.8-0.8c0-0.7-0.7-0.7-0.7-1v-0.2c0.1,0.3,0.4,0.6,0.8,0.6
			c0.5,0,0.8-0.4,0.8-0.8c0-0.5-0.4-0.8-0.8-0.8c-0.4,0-0.7,0.3-0.8,0.6c0.1-0.9,0.7-1.2,0.7-1.2h-0.8H45V18.9
			c0-2.3-1.9-4.2-4.2-4.2H25.9l-0.8-2l0,0h-0.3l0,0c-0.2,0.6-0.5,1.2-0.7,1.9c0,0,0,0,0,0.1h-3.6v-1.4c0-1.5,1.2-2.7,2.7-2.7h24.2
			c1.5,0,2.7,1.2,2.7,2.7C50.1,13.3,50.1,45.1,50.1,45.1z M45.1,43.8v-0.9H46l-0.6,1.6L45.1,43.8z M45.4,38.5v0.2
			c0,0.1-0.2,0.2-0.3,0.4V39C45.2,38.8,45.3,38.7,45.4,38.5z M45.1,37.5V37c0.2,0.2,0.3,0.5,0.4,0.9C45.3,37.8,45.2,37.6,45.1,37.5z
			"/>
	</g>
</g>
</svg>
