<?xml version="1.0" encoding="utf-8"?>
<!-- Generator: Adobe Illustrator 21.1.0, SVG Export Plug-In . SVG Version: 6.00 Build 0)  -->
<svg version="1.1" id="Layer_1" xmlns="http://www.w3.org/2000/svg" xmlns:xlink="http://www.w3.org/1999/xlink" x="0px" y="0px"
	 viewBox="0 0 64 64" style="enable-background:new 0 0 64 64;" xml:space="preserve">
<style type="text/css">
	.st0{fill:#FFFFFF;}
</style>
<g>
	<path class="st0" d="M59.7,24.6l-9.5-13.4C49.4,10,47.5,9,46,9H33.6c-1.5,0-3.3,1-4.2,2.2l-5.7,8h-5.8c-1.5,0-3.3,1-4.2,2.2
		L4.3,34.8c-0.9,1.2-0.9,3.2,0,4.5l9.5,13.4c0.8,1.2,2.7,2.2,4.2,2.2h12.5c1.5,0,3.3-1,4.2-2.2l5.7-8h5.8c1.5,0,3.3-1,4.2-2.2
		l9.5-13.4C60.6,27.8,60.6,25.8,59.7,24.6z M29.4,13.8c0.9-1.3,2.4-1.3,3.4,0l7.5,10.7c0.9,1.3,0.9,3.4,0,4.7l-0.1,0.1l-1.7-2.4
		c0-0.5-0.1-1.1-0.4-1.5c-0.3-0.4-0.7-0.6-1-0.6l-2.4-3.5c-0.8-1.2-2.7-2.2-4.2-2.2h-4.9L29.4,13.8z M6.6,33.7L14.1,23
		c0.9-1.3,2.7-2.4,4-2.4h10.7c1.3,0,1.6,1.1,0.7,2.4L22,33.7C21,35,19.2,36,17.9,36H7.2C5.9,36,5.6,35,6.6,33.7z M28.8,53.4H18.1
		c-1.3,0-3.1-1.1-4-2.4L6.6,40.4c-1-1.3-0.7-2.4,0.6-2.4h10.7c1.3,0,3.1,1.1,4,2.4l7.5,10.7C30.4,52.4,30.1,53.4,28.8,53.4z
		 M34.6,50.1c-0.9,1.3-2.4,1.3-3.4,0l-7.5-10.7c-0.9-1.3-0.9-3.4,0-4.7L31.2,24c0.9-1.3,2.4-1.3,3.4,0l7.5,10.7
		c0.9,1.3,0.9,3.4,0,4.7L34.6,50.1z M57.4,30.2l-7.5,10.7c-0.9,1.3-2.7,2.4-4,2.4h-4.6l2.8-4c0.9-1.2,0.9-3.2,0-4.5l-2.7-3.7
		l0.6-0.8c0.9-1.3,2.7-2.4,4-2.4h10.7C58.1,27.9,58.4,28.9,57.4,30.2z M56.8,25.8H46.1c-1.3,0-3.1-1.1-4-2.4l-7.5-10.7
		c-0.9-1.3-0.6-2.4,0.7-2.4H46c1.3,0,3.1,1.1,4,2.4l7.5,10.7C58.4,24.8,58.1,25.8,56.8,25.8z"/>
	<path class="st0" d="M46.1,31.3c0.6-0.8,0.4-1.4-0.4-1.4c-0.8,0-1.9,0.6-2.4,1.4c-0.6,0.8-0.4,1.4,0.4,1.4S45.6,32.1,46.1,31.3z"/>
	<path class="st0" d="M48.2,38.4c-0.8,0-1.9,0.6-2.4,1.4c-0.6,0.8-0.4,1.4,0.4,1.4s1.9-0.6,2.4-1.4C49.2,39,49,38.4,48.2,38.4z"/>
	<path class="st0" d="M54.2,29.9c-0.8,0-1.9,0.6-2.4,1.4c-0.6,0.8-0.4,1.4,0.4,1.4c0.8,0,1.9-0.6,2.4-1.4
		C55.2,30.5,55,29.9,54.2,29.9z"/>
	<path class="st0" d="M21.3,29.7c0.8,0,1.9-0.6,2.4-1.4c0.6-0.8,0.4-1.4-0.4-1.4s-1.9,0.6-2.4,1.4C20.3,29.1,20.5,29.7,21.3,29.7z"
		/>
	<path class="st0" d="M12.8,29.7c0.8,0,1.9-0.6,2.4-1.4c0.6-0.8,0.4-1.4-0.4-1.4c-0.8,0-1.9,0.6-2.4,1.4
		C11.8,29.1,12,29.7,12.8,29.7z"/>
	<path class="st0" d="M17.9,32.6c-0.6,0.8-0.4,1.4,0.4,1.4s1.9-0.6,2.4-1.4c0.6-0.8,0.4-1.4-0.4-1.4S18.4,31.8,17.9,32.6z"/>
	<path class="st0" d="M15.8,25.5c0.8,0,1.9-0.6,2.4-1.4c0.6-0.8,0.4-1.4-0.4-1.4s-1.9,0.6-2.4,1.4C14.8,24.9,15,25.5,15.8,25.5z"/>
	<path class="st0" d="M9.8,34c0.8,0,1.9-0.6,2.4-1.4c0.6-0.8,0.4-1.4-0.4-1.4c-0.8,0-1.9,0.6-2.4,1.4C8.8,33.3,9,34,9.8,34z"/>
	<path class="st0" d="M24.3,25.5c0.8,0,1.9-0.6,2.4-1.4c0.6-0.8,0.4-1.4-0.4-1.4s-1.9,0.6-2.4,1.4C23.3,24.9,23.5,25.5,24.3,25.5z"
		/>
	<path class="st0" d="M14.6,41.8c-0.8,0-1,0.6-0.4,1.4c0.6,0.8,1.6,1.4,2.4,1.4s1-0.6,0.4-1.4C16.5,42.4,15.4,41.8,14.6,41.8z"/>
	<path class="st0" d="M19.1,47.4c-0.8,0-1,0.6-0.4,1.4c0.6,0.8,1.6,1.4,2.4,1.4s1-0.6,0.4-1.4C21,48,19.9,47.4,19.1,47.4z"/>
	<path class="st0" d="M32.3,28.7c-0.6,0.8-0.6,2,0,2.8c0.6,0.8,1.4,0.8,2,0s0.6-2,0-2.8C33.7,27.9,32.9,27.9,32.3,28.7z"/>
	<path class="st0" d="M26.7,36.1c-0.6,0.8-0.6,2,0,2.8s1.4,0.8,2,0s0.6-2,0-2.8C28.1,35.4,27.2,35.4,26.7,36.1z"/>
	<path class="st0" d="M32.3,42.9c-0.6,0.8-0.6,2,0,2.8c0.6,0.8,1.4,0.8,2,0s0.6-2,0-2.8C33.7,42.1,32.9,42.1,32.3,42.9z"/>
	<path class="st0" d="M37.5,35.9c-0.6,0.8-0.6,2,0,2.8s1.4,0.8,2,0s0.6-2,0-2.8C39,35.1,38.1,35.1,37.5,35.9z"/>
	<path class="st0" d="M43.1,17.5c-0.6-0.8-1.6-1.4-2.4-1.4c-0.8,0-1,0.6-0.4,1.4s1.6,1.4,2.4,1.4C43.5,19,43.7,18.3,43.1,17.5z"/>
	<path class="st0" d="M51.6,17.5c-0.6-0.8-1.6-1.4-2.4-1.4c-0.8,0-1,0.6-0.4,1.4s1.6,1.4,2.4,1.4C52,19,52.2,18.3,51.6,17.5z"/>
	<path class="st0" d="M43.7,20.4c-0.8,0-1,0.6-0.4,1.4s1.6,1.4,2.4,1.4c0.8,0,1-0.6,0.4-1.4C45.6,21,44.5,20.4,43.7,20.4z"/>
	<path class="st0" d="M48.6,13.3c-0.6-0.8-1.6-1.4-2.4-1.4c-0.8,0-1,0.6-0.4,1.4c0.6,0.8,1.6,1.4,2.4,1.4S49.2,14.1,48.6,13.3z"/>
	<path class="st0" d="M52.2,20.4c-0.8,0-1,0.6-0.4,1.4s1.6,1.4,2.4,1.4c0.8,0,1-0.6,0.4-1.4C54.1,21,53,20.4,52.2,20.4z"/>
	<path class="st0" d="M40.1,13.3c-0.6-0.8-1.6-1.4-2.4-1.4c-0.8,0-1,0.6-0.4,1.4c0.6,0.8,1.6,1.4,2.4,1.4S40.7,14.1,40.1,13.3z"/>
</g>
</svg>
