<?xml version="1.0" encoding="utf-8"?>
<!-- Generator: Adobe Illustrator 21.1.0, SVG Export Plug-In . SVG Version: 6.00 Build 0)  -->
<svg version="1.1" id="Layer_1" xmlns="http://www.w3.org/2000/svg" xmlns:xlink="http://www.w3.org/1999/xlink" x="0px" y="0px"
	 viewBox="0 0 64 64" style="enable-background:new 0 0 64 64;" xml:space="preserve">
<style type="text/css">
	.st0{fill:#FFFFFF;}
</style>
<g>
	<path class="st0" d="M22.3,21.2c-0.1,0-0.3,0-0.4,0c-4.5,0.2-7.9,4-7.7,8.5c0.2,4.3,3.8,7.7,8.1,7.7c0.1,0,0.3,0,0.4,0
		c4.5-0.2,7.9-4,7.7-8.5C30.2,24.6,26.6,21.2,22.3,21.2z M22.6,36c-0.1,0-0.2,0-0.3,0c-3.6,0-6.5-2.8-6.7-6.4
		c-0.2-3.7,2.7-6.8,6.4-7c0.1,0,0.2,0,0.3,0c3.6,0,6.5,2.8,6.7,6.4C29.2,32.7,26.3,35.8,22.6,36z"/>
	<path class="st0" d="M42.5,26.9c0.2,0,0.5,0,0.7,0c3.7-0.4,6.4-3.7,6-7.4c-0.4-3.4-3.3-6-6.7-6c-0.2,0-0.5,0-0.7,0
		c-3.7,0.4-6.4,3.7-6,7.4C36.2,24.4,39.1,26.9,42.5,26.9z M38.1,16.7c0.9-1.2,2.3-1.9,3.8-2.1c0.2,0,0.4,0,0.6,0
		c2.9,0,5.3,2.1,5.6,5c0.3,3.1-1.9,5.8-5,6.2c-0.2,0-0.4,0-0.6,0c-2.9,0-5.3-2.1-5.6-5C36.7,19.4,37.2,17.9,38.1,16.7z"/>
	<path class="st0" d="M42.9,41.4c-0.2-0.4-0.4-0.3-0.5-0.3c0,0-0.1,0-0.3,0.1l-1-2.3c-0.3-0.6-0.7-0.8-1.2-0.6
		c-0.2,0.1-0.4,0.2-0.4,0.4c-0.1,0.1-0.1,0.3-0.2,0.6l-0.4,3c0,0.4,0,0.7,0.1,0.9c0.2,0.4,0.5,0.4,1,0.2l1.6-0.7l0.3,0.7
		c0.1,0.3,0.3,0.4,0.5,0.4c0.1,0,0.2,0,0.3-0.1c0.4-0.2,0.5-0.5,0.3-0.9l-0.3-0.7C42.9,42,43,42,43,41.9
		C42.9,41.9,43,41.7,42.9,41.4z M39.8,42.2c0.2-1.3,0.3-2,0.3-2.3l0.8,1.8L39.8,42.2z"/>
	<path class="st0" d="M47.1,39.5c-0.2-0.4-0.4-0.3-0.5-0.3c0,0-0.1,0-0.3,0.1l-1-2.3c-0.3-0.6-0.7-0.8-1.2-0.6
		c-0.2,0.1-0.4,0.2-0.4,0.4c-0.1,0.1-0.1,0.3-0.2,0.6l-0.4,3c0,0.4,0,0.7,0.1,0.9c0.2,0.4,0.5,0.4,1,0.2l1.6-0.7l0.3,0.7
		c0.1,0.3,0.3,0.4,0.5,0.4c0.1,0,0.2,0,0.3-0.1c0.4-0.2,0.5-0.5,0.3-0.9l-0.3-0.7c0.2-0.1,0.3-0.1,0.3-0.2
		C47.1,40,47.2,39.8,47.1,39.5z M44.1,40.3c0.2-1.3,0.3-2,0.3-2.3l0.8,1.8L44.1,40.3z"/>
	<path class="st0" d="M41.9,18.6c0.1,0,0.3,0,0.4-0.1l1.6-0.9l0.4,4c0,0.2,0.1,0.3,0.1,0.4c0.1,0.1,0.2,0.2,0.4,0.2h0.1
		c0.1,0,0.2,0,0.3-0.1c0.2-0.1,0.3-0.3,0.2-0.7l-0.5-4.6c0-0.2-0.1-0.3-0.1-0.4c-0.2-0.3-0.5-0.3-0.9-0.1l-2.2,1.3
		c-0.5,0.3-0.4,0.6-0.3,0.8C41.6,18.5,41.7,18.6,41.9,18.6z"/>
	<path class="st0" d="M38.9,20.3c0.1,0,0.2,0,0.3-0.1l0.3-0.2l1.7,3l-0.4,0.2c-0.2,0.1-0.3,0.2-0.3,0.4c0,0.1,0,0.3,0.1,0.4
		s0.2,0.2,0.4,0.2h0.1c0.1,0,0.2,0,0.3-0.1l1.7-1c0.2-0.1,0.3-0.2,0.3-0.3c0-0.1,0-0.3-0.1-0.4c-0.1-0.2-0.3-0.3-0.4-0.3
		c-0.1,0-0.2,0-0.4,0.1l-0.3,0.2l-2-3.3c-0.2-0.3-0.3-0.4-0.3-0.4c-0.1,0-0.2,0-0.4,0.1c-0.1,0.1-0.3,0.2-0.5,0.3
		c-0.2,0.2-0.4,0.3-0.5,0.4c-0.2,0.3-0.2,0.5-0.1,0.6C38.7,20.3,38.8,20.3,38.9,20.3z"/>
	<path class="st0" d="M26,27.1c-0.3-0.2-0.7-0.3-1.1-0.3s-0.8,0.1-1.1,0.3c-0.2,0.1-0.3,0.3-0.4,0.5s-0.1,0.3-0.1,0.5
		s0.1,0.3,0.3,0.4c0.2,0.1,0.4,0.1,0.6-0.1s0.3-0.3,0.5-0.3s0.4,0,0.6,0.1s0.3,0.2,0.3,0.3c0,0.1,0,0.3-0.1,0.5
		c-0.1,0.3-0.3,0.4-0.5,0.5c0,0-0.1,0-0.7-0.1c-0.3,0-0.5,0.1-0.6,0.3c-0.1,0.2-0.1,0.5,0.3,0.8c0.5,0.3,0.7,0.7,0.4,1.2
		c-0.1,0.2-0.2,0.3-0.3,0.4c-0.3,0.2-0.5,0.2-0.9,0c-0.2-0.1-0.4-0.3-0.5-0.5c0,0,0-0.1-0.1-0.6c0-0.3-0.1-0.5-0.3-0.6
		c-0.2-0.1-0.3-0.1-0.5,0s-0.3,0.2-0.4,0.3c-0.2,0.5-0.2,1,0.1,1.6c0.2,0.4,0.5,0.7,1,0.9c0.4,0.2,0.8,0.3,1.2,0.3
		c0.2,0,0.4,0,0.5-0.1c0.6-0.1,1-0.5,1.3-1.1c0.3-0.7,0.3-1.3-0.1-1.9c0.5-0.1,0.9-0.4,1.2-0.9c0.2-0.5,0.3-0.9,0.1-1.4
		C26.8,27.7,26.5,27.3,26,27.1z"/>
	<path class="st0" d="M21.4,28.3c0.5-0.1,0.9-0.4,1.2-0.9c0.2-0.5,0.3-0.9,0.1-1.4c-0.2-0.4-0.5-0.8-1-1c-0.3-0.2-0.7-0.3-1.1-0.3
		s-0.8,0.1-1.1,0.3c-0.2,0.1-0.3,0.3-0.4,0.5C19,25.6,19,25.7,19,25.9c0,0.2,0.1,0.3,0.3,0.4c0.2,0.1,0.4,0.1,0.6-0.1
		s0.3-0.3,0.5-0.3s0.4,0,0.6,0.1s0.3,0.2,0.3,0.3c0,0.1,0,0.3-0.1,0.5c-0.1,0.3-0.3,0.4-0.5,0.5l0,0c0,0-0.1,0-0.7-0.1
		c-0.3,0-0.5,0.1-0.6,0.3c-0.1,0.2-0.1,0.5,0.3,0.8c0.5,0.3,0.7,0.7,0.4,1.2c-0.1,0.2-0.2,0.3-0.3,0.4c-0.3,0.2-0.5,0.2-0.9,0
		c-0.2-0.1-0.4-0.3-0.5-0.5c0,0,0-0.1-0.1-0.7c0-0.3-0.1-0.5-0.3-0.6c-0.2-0.1-0.3-0.1-0.5,0s-0.3,0.2-0.4,0.3
		c-0.2,0.5-0.2,1,0.1,1.6c0.2,0.4,0.5,0.7,1,0.9c0.4,0.2,0.8,0.3,1.2,0.3c0.2,0,0.4,0,0.5-0.1c0.6-0.1,1-0.5,1.3-1.1
		C21.8,29.5,21.8,28.8,21.4,28.3z"/>
	<path class="st0" d="M43.1,33.2c-2.6,0-4.9,1.3-6.3,3.6l-0.3,0.6c-0.5,1-0.7,2.1-0.7,3.1c0,4,3.3,7.3,7.3,7.3s7.3-3.3,7.3-7.3
		C50.4,36.4,47.1,33.2,43.1,33.2z M42.9,46.7c-3.5,0-6.3-2.8-6.3-6.3s2.8-6.3,6.3-6.3s6.3,2.8,6.3,6.3S46.4,46.7,42.9,46.7z"/>
	<path class="st0" d="M48.9,31.5l-0.4-0.3l0.4-0.3c1-0.6,1.8-1.4,2.6-2.3c1.9-2.4,2.8-5.3,2.5-8.4C53.4,14.4,48.5,10,42.7,10
		c-0.4,0-0.8,0-1.2,0.1c-4.6,0.5-8.5,3.7-9.7,8.2l-0.1,0.5l-0.4-0.2c-2.4-1.5-5.1-2.1-7.9-2c-3.7,0.2-7.1,1.8-9.6,4.5
		s-3.8,6.3-3.6,10c0.4,7.6,6.8,13.5,14.5,13.1c1.4-0.1,2.8-0.4,4.2-0.9l0.4-0.2l0.1,0.4c1,6,6.2,10.3,12.3,10.3
		c6.9,0,12.5-5.6,12.5-12.4C53.9,37.5,52.1,33.9,48.9,31.5z M32.7,19.5c0.9-4.3,4.4-7.5,8.8-8c0.4,0,0.7-0.1,1.1-0.1
		c5.1,0,9.4,3.8,10,8.9c0.3,2.7-0.5,5.3-2.2,7.4c-0.9,1.1-1.9,1.9-3.1,2.6l-0.2,0.1L47,30.3c-2.7-1.3-5.9-1.6-8.9-0.8l-0.4,0.1v-0.4
		c-0.3-3.6-2-6.9-4.8-9.3l-0.2-0.1L32.7,19.5z M24.5,42.7L24.5,42.7c-0.2,0-0.4,0-0.6,0c-6.6,0-12.1-5.2-12.4-11.8
		c-0.2-3.3,1-6.5,3.2-8.9c2.2-2.5,5.3-3.9,8.6-4.1c0.2,0,0.4,0,0.6,0c6.6,0,12.1,5.2,12.4,11.8c0.2,3.3-1,6.5-3.2,8.9
		C30.8,41.1,27.8,42.6,24.5,42.7z M41.8,52.6c-5.8,0-10.6-4.3-11.2-10v-0.2l0.2-0.1c1.3-0.7,2.4-1.7,3.4-2.8
		c0.7-0.8,1.3-1.7,1.9-2.6l0.3-0.6c0.8-1.6,1.3-3.4,1.5-5.2v-0.2l0.2-0.1c1.2-0.4,2.4-0.6,3.7-0.6c6.2,0,11.2,5,11.2,11.2
		C53,47.5,48,52.6,41.8,52.6z"/>
</g>
</svg>
